<?xml version="1.0" encoding="UTF-8" standalone="no"?>
<!DOCTYPE svg PUBLIC "-//W3C//DTD SVG 1.1//EN"
 "http://www.w3.org/Graphics/SVG/1.1/DTD/svg11.dtd">
<!-- Generated by graphviz version 2.26.3 (20100126.1600)
 -->
<!-- Title: G Pages: 1 -->
<svg width="717pt" height="540pt"
 viewBox="0.00 0.00 717.37 540.00" xmlns="http://www.w3.org/2000/svg" xmlns:xlink="http://www.w3.org/1999/xlink">
<g id="graph1" class="graph" transform="scale(0.985401 0.985401) rotate(0) translate(4 544)">
<title>G</title>
<polygon fill="white" stroke="white" points="-4,5 -4,-544 725,-544 725,5 -4,5"/>
<!-- Options -->
<g id="node1" class="node"><title>Options</title>
<a xlink:href="Options.html" xlink:title="Options">
<polygon fill="lightgrey" stroke="lightgrey" points="407.625,-108 361.625,-108 349.625,-96 349.625,-84 361.625,-72 407.625,-72 419.625,-84 419.625,-96 407.625,-108"/>
<path fill="lightgrey" stroke="lightgrey" d="M361.625,-108C355.625,-108 349.625,-102 349.625,-96"/>
<path fill="lightgrey" stroke="lightgrey" d="M349.625,-84C349.625,-78 355.625,-72 361.625,-72"/>
<path fill="lightgrey" stroke="lightgrey" d="M407.625,-72C413.625,-72 419.625,-78 419.625,-84"/>
<path fill="lightgrey" stroke="lightgrey" d="M419.625,-96C419.625,-102 413.625,-108 407.625,-108"/>
<polyline fill="none" stroke="red" points="407.625,-108 361.625,-108 "/>
<path fill="none" stroke="red" d="M361.625,-108C355.625,-108 349.625,-102 349.625,-96"/>
<polyline fill="none" stroke="red" points="349.625,-96 349.625,-84 "/>
<path fill="none" stroke="red" d="M349.625,-84C349.625,-78 355.625,-72 361.625,-72"/>
<polyline fill="none" stroke="red" points="361.625,-72 407.625,-72 "/>
<path fill="none" stroke="red" d="M407.625,-72C413.625,-72 419.625,-78 419.625,-84"/>
<polyline fill="none" stroke="red" points="419.625,-84 419.625,-96 "/>
<path fill="none" stroke="red" d="M419.625,-96C419.625,-102 413.625,-108 407.625,-108"/>
<text text-anchor="middle" x="384.625" y="-85.9" font-family="Times Roman,serif" font-size="14.00">Options</text>
</a>
</g>
<!-- Main_rest -->
<g id="node2" class="node"><title>Main_rest</title>
<a xlink:href="Main_rest.html" xlink:title="Main_rest">
<polygon fill="lightgrey" stroke="lightgrey" points="79.6254,-468 19.6254,-468 7.62541,-456 7.62541,-444 19.6254,-432 79.6254,-432 91.6254,-444 91.6254,-456 79.6254,-468"/>
<path fill="lightgrey" stroke="lightgrey" d="M19.6254,-468C13.6254,-468 7.62541,-462 7.62541,-456"/>
<path fill="lightgrey" stroke="lightgrey" d="M7.62541,-444C7.62541,-438 13.6254,-432 19.6254,-432"/>
<path fill="lightgrey" stroke="lightgrey" d="M79.6254,-432C85.6254,-432 91.6254,-438 91.6254,-444"/>
<path fill="lightgrey" stroke="lightgrey" d="M91.6254,-456C91.6254,-462 85.6254,-468 79.6254,-468"/>
<polyline fill="none" stroke="red" points="79.6254,-468 19.6254,-468 "/>
<path fill="none" stroke="red" d="M19.6254,-468C13.6254,-468 7.62541,-462 7.62541,-456"/>
<polyline fill="none" stroke="red" points="7.62541,-456 7.62541,-444 "/>
<path fill="none" stroke="red" d="M7.62541,-444C7.62541,-438 13.6254,-432 19.6254,-432"/>
<polyline fill="none" stroke="red" points="19.6254,-432 79.6254,-432 "/>
<path fill="none" stroke="red" d="M79.6254,-432C85.6254,-432 91.6254,-438 91.6254,-444"/>
<polyline fill="none" stroke="red" points="91.6254,-444 91.6254,-456 "/>
<path fill="none" stroke="red" d="M91.6254,-456C91.6254,-462 85.6254,-468 79.6254,-468"/>
<text text-anchor="middle" x="49.6254" y="-445.9" font-family="Times Roman,serif" font-size="14.00">Main_rest</text>
</a>
</g>
<!-- Main_rest&#45;&gt;Options -->
<g id="edge2" class="edge"><title>Main_rest&#45;&gt;Options</title>
<path fill="none" stroke="black" d="M66.6987,-431.653C122.033,-372.189 296.543,-184.656 360.676,-115.736"/>
<polygon fill="black" stroke="black" points="363.336,-118.015 367.587,-108.31 358.212,-113.247 363.336,-118.015"/>
</g>
<!-- Main_query -->
<g id="node4" class="node"><title>Main_query</title>
<a xlink:href="Main_query.html" xlink:title="Main_query">
<polygon fill="lightgrey" stroke="lightgrey" points="211.625,-468 139.625,-468 127.625,-456 127.625,-444 139.625,-432 211.625,-432 223.625,-444 223.625,-456 211.625,-468"/>
<path fill="lightgrey" stroke="lightgrey" d="M139.625,-468C133.625,-468 127.625,-462 127.625,-456"/>
<path fill="lightgrey" stroke="lightgrey" d="M127.625,-444C127.625,-438 133.625,-432 139.625,-432"/>
<path fill="lightgrey" stroke="lightgrey" d="M211.625,-432C217.625,-432 223.625,-438 223.625,-444"/>
<path fill="lightgrey" stroke="lightgrey" d="M223.625,-456C223.625,-462 217.625,-468 211.625,-468"/>
<polyline fill="none" stroke="red" points="211.625,-468 139.625,-468 "/>
<path fill="none" stroke="red" d="M139.625,-468C133.625,-468 127.625,-462 127.625,-456"/>
<polyline fill="none" stroke="red" points="127.625,-456 127.625,-444 "/>
<path fill="none" stroke="red" d="M127.625,-444C127.625,-438 133.625,-432 139.625,-432"/>
<polyline fill="none" stroke="red" points="139.625,-432 211.625,-432 "/>
<path fill="none" stroke="red" d="M211.625,-432C217.625,-432 223.625,-438 223.625,-444"/>
<polyline fill="none" stroke="red" points="223.625,-444 223.625,-456 "/>
<path fill="none" stroke="red" d="M223.625,-456C223.625,-462 217.625,-468 211.625,-468"/>
<text text-anchor="middle" x="175.625" y="-445.9" font-family="Times Roman,serif" font-size="14.00">Main_query</text>
</a>
</g>
<!-- Main_query&#45;&gt;Options -->
<g id="edge4" class="edge"><title>Main_query&#45;&gt;Options</title>
<path fill="none" stroke="black" d="M186.277,-431.653C220.589,-372.551 328.35,-186.933 368.946,-117.007"/>
<polygon fill="black" stroke="black" points="372.001,-118.716 373.995,-108.31 365.947,-115.201 372.001,-118.716"/>
</g>
<!-- Main_genrdfs -->
<g id="node6" class="node"><title>Main_genrdfs</title>
<a xlink:href="Main_genrdfs.html" xlink:title="Main_genrdfs">
<polygon fill="lightgrey" stroke="lightgrey" points="358.625,-468 274.625,-468 262.625,-456 262.625,-444 274.625,-432 358.625,-432 370.625,-444 370.625,-456 358.625,-468"/>
<path fill="lightgrey" stroke="lightgrey" d="M274.625,-468C268.625,-468 262.625,-462 262.625,-456"/>
<path fill="lightgrey" stroke="lightgrey" d="M262.625,-444C262.625,-438 268.625,-432 274.625,-432"/>
<path fill="lightgrey" stroke="lightgrey" d="M358.625,-432C364.625,-432 370.625,-438 370.625,-444"/>
<path fill="lightgrey" stroke="lightgrey" d="M370.625,-456C370.625,-462 364.625,-468 358.625,-468"/>
<polyline fill="none" stroke="red" points="358.625,-468 274.625,-468 "/>
<path fill="none" stroke="red" d="M274.625,-468C268.625,-468 262.625,-462 262.625,-456"/>
<polyline fill="none" stroke="red" points="262.625,-456 262.625,-444 "/>
<path fill="none" stroke="red" d="M262.625,-444C262.625,-438 268.625,-432 274.625,-432"/>
<polyline fill="none" stroke="red" points="274.625,-432 358.625,-432 "/>
<path fill="none" stroke="red" d="M358.625,-432C364.625,-432 370.625,-438 370.625,-444"/>
<polyline fill="none" stroke="red" points="370.625,-444 370.625,-456 "/>
<path fill="none" stroke="red" d="M370.625,-456C370.625,-462 364.625,-468 358.625,-468"/>
<text text-anchor="middle" x="316.625" y="-445.9" font-family="Times Roman,serif" font-size="14.00">Main_genrdfs</text>
</a>
</g>
<!-- Main_genrdfs&#45;&gt;Options -->
<g id="edge6" class="edge"><title>Main_genrdfs&#45;&gt;Options</title>
<path fill="none" stroke="black" d="M320.091,-431.653C331.186,-372.913 365.887,-189.201 379.279,-118.305"/>
<polygon fill="black" stroke="black" points="382.75,-118.786 381.167,-108.31 375.871,-117.487 382.75,-118.786"/>
</g>
<!-- Main_exec -->
<g id="node8" class="node"><title>Main_exec</title>
<a xlink:href="Main_exec.html" xlink:title="Main_exec">
<polygon fill="lightgrey" stroke="lightgrey" points="484.625,-468 420.625,-468 408.625,-456 408.625,-444 420.625,-432 484.625,-432 496.625,-444 496.625,-456 484.625,-468"/>
<path fill="lightgrey" stroke="lightgrey" d="M420.625,-468C414.625,-468 408.625,-462 408.625,-456"/>
<path fill="lightgrey" stroke="lightgrey" d="M408.625,-444C408.625,-438 414.625,-432 420.625,-432"/>
<path fill="lightgrey" stroke="lightgrey" d="M484.625,-432C490.625,-432 496.625,-438 496.625,-444"/>
<path fill="lightgrey" stroke="lightgrey" d="M496.625,-456C496.625,-462 490.625,-468 484.625,-468"/>
<polyline fill="none" stroke="red" points="484.625,-468 420.625,-468 "/>
<path fill="none" stroke="red" d="M420.625,-468C414.625,-468 408.625,-462 408.625,-456"/>
<polyline fill="none" stroke="red" points="408.625,-456 408.625,-444 "/>
<path fill="none" stroke="red" d="M408.625,-444C408.625,-438 414.625,-432 420.625,-432"/>
<polyline fill="none" stroke="red" points="420.625,-432 484.625,-432 "/>
<path fill="none" stroke="red" d="M484.625,-432C490.625,-432 496.625,-438 496.625,-444"/>
<polyline fill="none" stroke="red" points="496.625,-444 496.625,-456 "/>
<path fill="none" stroke="red" d="M496.625,-456C496.625,-462 490.625,-468 484.625,-468"/>
<text text-anchor="middle" x="452.625" y="-445.9" font-family="Times Roman,serif" font-size="14.00">Main_exec</text>
</a>
</g>
<!-- Main_exec&#45;&gt;Options -->
<g id="edge8" class="edge"><title>Main_exec&#45;&gt;Options</title>
<path fill="none" stroke="black" d="M449.16,-431.653C438.065,-372.913 403.363,-189.201 389.972,-118.305"/>
<polygon fill="black" stroke="black" points="393.379,-117.487 388.084,-108.31 386.501,-118.786 393.379,-117.487"/>
</g>
<!-- Main_chain -->
<g id="node10" class="node"><title>Main_chain</title>
<a xlink:href="Main_chain.html" xlink:title="Main_chain">
<polygon fill="lightgrey" stroke="lightgrey" points="615.625,-468 545.625,-468 533.625,-456 533.625,-444 545.625,-432 615.625,-432 627.625,-444 627.625,-456 615.625,-468"/>
<path fill="lightgrey" stroke="lightgrey" d="M545.625,-468C539.625,-468 533.625,-462 533.625,-456"/>
<path fill="lightgrey" stroke="lightgrey" d="M533.625,-444C533.625,-438 539.625,-432 545.625,-432"/>
<path fill="lightgrey" stroke="lightgrey" d="M615.625,-432C621.625,-432 627.625,-438 627.625,-444"/>
<path fill="lightgrey" stroke="lightgrey" d="M627.625,-456C627.625,-462 621.625,-468 615.625,-468"/>
<polyline fill="none" stroke="red" points="615.625,-468 545.625,-468 "/>
<path fill="none" stroke="red" d="M545.625,-468C539.625,-468 533.625,-462 533.625,-456"/>
<polyline fill="none" stroke="red" points="533.625,-456 533.625,-444 "/>
<path fill="none" stroke="red" d="M533.625,-444C533.625,-438 539.625,-432 545.625,-432"/>
<polyline fill="none" stroke="red" points="545.625,-432 615.625,-432 "/>
<path fill="none" stroke="red" d="M615.625,-432C621.625,-432 627.625,-438 627.625,-444"/>
<polyline fill="none" stroke="red" points="627.625,-444 627.625,-456 "/>
<path fill="none" stroke="red" d="M627.625,-456C627.625,-462 621.625,-468 615.625,-468"/>
<text text-anchor="middle" x="580.625" y="-445.9" font-family="Times Roman,serif" font-size="14.00">Main_chain</text>
</a>
</g>
<!-- Main_chain&#45;&gt;Options -->
<g id="edge10" class="edge"><title>Main_chain&#45;&gt;Options</title>
<path fill="none" stroke="black" d="M570.636,-431.653C538.524,-372.672 437.812,-187.69 399.563,-117.437"/>
<polygon fill="black" stroke="black" points="402.45,-115.42 394.594,-108.31 396.302,-118.767 402.45,-115.42"/>
</g>
<!-- Main -->
<g id="node12" class="node"><title>Main</title>
<a xlink:href="Main.html" xlink:title="Main">
<polygon fill="lightgrey" stroke="lightgrey" points="703.625,-468 673.625,-468 661.625,-456 661.625,-444 673.625,-432 703.625,-432 715.625,-444 715.625,-456 703.625,-468"/>
<path fill="lightgrey" stroke="lightgrey" d="M673.625,-468C667.625,-468 661.625,-462 661.625,-456"/>
<path fill="lightgrey" stroke="lightgrey" d="M661.625,-444C661.625,-438 667.625,-432 673.625,-432"/>
<path fill="lightgrey" stroke="lightgrey" d="M703.625,-432C709.625,-432 715.625,-438 715.625,-444"/>
<path fill="lightgrey" stroke="lightgrey" d="M715.625,-456C715.625,-462 709.625,-468 703.625,-468"/>
<polyline fill="none" stroke="red" points="703.625,-468 673.625,-468 "/>
<path fill="none" stroke="red" d="M673.625,-468C667.625,-468 661.625,-462 661.625,-456"/>
<polyline fill="none" stroke="red" points="661.625,-456 661.625,-444 "/>
<path fill="none" stroke="red" d="M661.625,-444C661.625,-438 667.625,-432 673.625,-432"/>
<polyline fill="none" stroke="red" points="673.625,-432 703.625,-432 "/>
<path fill="none" stroke="red" d="M703.625,-432C709.625,-432 715.625,-438 715.625,-444"/>
<polyline fill="none" stroke="red" points="715.625,-444 715.625,-456 "/>
<path fill="none" stroke="red" d="M715.625,-456C715.625,-462 709.625,-468 703.625,-468"/>
<text text-anchor="middle" x="688.625" y="-445.9" font-family="Times Roman,serif" font-size="14.00">Main</text>
</a>
</g>
<!-- Main&#45;&gt;Options -->
<g id="edge12" class="edge"><title>Main&#45;&gt;Options</title>
<path fill="none" stroke="black" d="M673.132,-431.653C623.02,-372.31 465.199,-185.416 406.714,-116.157"/>
<polygon fill="black" stroke="black" points="409.214,-113.693 400.088,-108.31 403.865,-118.209 409.214,-113.693"/>
</g>
</g>
</svg>
