<?xml version="1.0" encoding="UTF-8" standalone="no"?>
<!DOCTYPE svg PUBLIC "-//W3C//DTD SVG 1.1//EN"
 "http://www.w3.org/Graphics/SVG/1.1/DTD/svg11.dtd">
<!-- Generated by graphviz version 2.26.3 (20100126.1600)
 -->
<!-- Title: G Pages: 1 -->
<svg width="717pt" height="540pt"
 viewBox="0.00 0.00 717.37 540.00" xmlns="http://www.w3.org/2000/svg" xmlns:xlink="http://www.w3.org/1999/xlink">
<g id="graph1" class="graph" transform="scale(0.985401 0.985401) rotate(0) translate(4 544)">
<title>G</title>
<polygon fill="white" stroke="white" points="-4,5 -4,-544 725,-544 725,5 -4,5"/>
<!-- Uriset -->
<g id="node1" class="node"><title>Uriset</title>
<a xlink:href="Uriset.html" xlink:title="Uriset">
<polygon fill="lightgrey" stroke="lightgrey" points="94.7701,-141 60.7701,-141 48.7701,-129 48.7701,-117 60.7701,-105 94.7701,-105 106.77,-117 106.77,-129 94.7701,-141"/>
<path fill="lightgrey" stroke="lightgrey" d="M60.7701,-141C54.7701,-141 48.7701,-135 48.7701,-129"/>
<path fill="lightgrey" stroke="lightgrey" d="M48.7701,-117C48.7701,-111 54.7701,-105 60.7701,-105"/>
<path fill="lightgrey" stroke="lightgrey" d="M94.7701,-105C100.77,-105 106.77,-111 106.77,-117"/>
<path fill="lightgrey" stroke="lightgrey" d="M106.77,-129C106.77,-135 100.77,-141 94.7701,-141"/>
<polyline fill="none" stroke="red" points="94.7701,-141 60.7701,-141 "/>
<path fill="none" stroke="red" d="M60.7701,-141C54.7701,-141 48.7701,-135 48.7701,-129"/>
<polyline fill="none" stroke="red" points="48.7701,-129 48.7701,-117 "/>
<path fill="none" stroke="red" d="M48.7701,-117C48.7701,-111 54.7701,-105 60.7701,-105"/>
<polyline fill="none" stroke="red" points="60.7701,-105 94.7701,-105 "/>
<path fill="none" stroke="red" d="M94.7701,-105C100.77,-105 106.77,-111 106.77,-117"/>
<polyline fill="none" stroke="red" points="106.77,-117 106.77,-129 "/>
<path fill="none" stroke="red" d="M106.77,-129C106.77,-135 100.77,-141 94.7701,-141"/>
<text text-anchor="middle" x="77.7701" y="-118.9" font-family="Times Roman,serif" font-size="14.00">Uriset</text>
</a>
</g>
<!-- Urimap -->
<g id="node2" class="node"><title>Urimap</title>
<a xlink:href="Urimap.html" xlink:title="Urimap">
<polygon fill="lightgrey" stroke="lightgrey" points="256.77,-239 214.77,-239 202.77,-227 202.77,-215 214.77,-203 256.77,-203 268.77,-215 268.77,-227 256.77,-239"/>
<path fill="lightgrey" stroke="lightgrey" d="M214.77,-239C208.77,-239 202.77,-233 202.77,-227"/>
<path fill="lightgrey" stroke="lightgrey" d="M202.77,-215C202.77,-209 208.77,-203 214.77,-203"/>
<path fill="lightgrey" stroke="lightgrey" d="M256.77,-203C262.77,-203 268.77,-209 268.77,-215"/>
<path fill="lightgrey" stroke="lightgrey" d="M268.77,-227C268.77,-233 262.77,-239 256.77,-239"/>
<polyline fill="none" stroke="red" points="256.77,-239 214.77,-239 "/>
<path fill="none" stroke="red" d="M214.77,-239C208.77,-239 202.77,-233 202.77,-227"/>
<polyline fill="none" stroke="red" points="202.77,-227 202.77,-215 "/>
<path fill="none" stroke="red" d="M202.77,-215C202.77,-209 208.77,-203 214.77,-203"/>
<polyline fill="none" stroke="red" points="214.77,-203 256.77,-203 "/>
<path fill="none" stroke="red" d="M256.77,-203C262.77,-203 268.77,-209 268.77,-215"/>
<polyline fill="none" stroke="red" points="268.77,-215 268.77,-227 "/>
<path fill="none" stroke="red" d="M268.77,-227C268.77,-233 262.77,-239 256.77,-239"/>
<text text-anchor="middle" x="235.77" y="-216.9" font-family="Times Roman,serif" font-size="14.00">Urimap</text>
</a>
</g>
<!-- Rdf_sparql -->
<g id="node3" class="node"><title>Rdf_sparql</title>
<a xlink:href="Rdf_sparql.html" xlink:title="Rdf_sparql">
<polygon fill="lightgrey" stroke="lightgrey" points="364.77,-43 300.77,-43 288.77,-31 288.77,-19 300.77,-7 364.77,-7 376.77,-19 376.77,-31 364.77,-43"/>
<path fill="lightgrey" stroke="lightgrey" d="M300.77,-43C294.77,-43 288.77,-37 288.77,-31"/>
<path fill="lightgrey" stroke="lightgrey" d="M288.77,-19C288.77,-13 294.77,-7 300.77,-7"/>
<path fill="lightgrey" stroke="lightgrey" d="M364.77,-7C370.77,-7 376.77,-13 376.77,-19"/>
<path fill="lightgrey" stroke="lightgrey" d="M376.77,-31C376.77,-37 370.77,-43 364.77,-43"/>
<polyline fill="none" stroke="red" points="364.77,-43 300.77,-43 "/>
<path fill="none" stroke="red" d="M300.77,-43C294.77,-43 288.77,-37 288.77,-31"/>
<polyline fill="none" stroke="red" points="288.77,-31 288.77,-19 "/>
<path fill="none" stroke="red" d="M288.77,-19C288.77,-13 294.77,-7 300.77,-7"/>
<polyline fill="none" stroke="red" points="300.77,-7 364.77,-7 "/>
<path fill="none" stroke="red" d="M364.77,-7C370.77,-7 376.77,-13 376.77,-19"/>
<polyline fill="none" stroke="red" points="376.77,-19 376.77,-31 "/>
<path fill="none" stroke="red" d="M376.77,-31C376.77,-37 370.77,-43 364.77,-43"/>
<text text-anchor="middle" x="332.77" y="-20.9" font-family="Times Roman,serif" font-size="14.00">Rdf_sparql</text>
</a>
</g>
<!-- Grdfs -->
<g id="node4" class="node"><title>Grdfs</title>
<a xlink:href="Grdfs.html" xlink:title="Grdfs">
<polygon fill="lightgrey" stroke="lightgrey" points="358.77,-141 328.77,-141 316.77,-129 316.77,-117 328.77,-105 358.77,-105 370.77,-117 370.77,-129 358.77,-141"/>
<path fill="lightgrey" stroke="lightgrey" d="M328.77,-141C322.77,-141 316.77,-135 316.77,-129"/>
<path fill="lightgrey" stroke="lightgrey" d="M316.77,-117C316.77,-111 322.77,-105 328.77,-105"/>
<path fill="lightgrey" stroke="lightgrey" d="M358.77,-105C364.77,-105 370.77,-111 370.77,-117"/>
<path fill="lightgrey" stroke="lightgrey" d="M370.77,-129C370.77,-135 364.77,-141 358.77,-141"/>
<polyline fill="none" stroke="red" points="358.77,-141 328.77,-141 "/>
<path fill="none" stroke="red" d="M328.77,-141C322.77,-141 316.77,-135 316.77,-129"/>
<polyline fill="none" stroke="red" points="316.77,-129 316.77,-117 "/>
<path fill="none" stroke="red" d="M316.77,-117C316.77,-111 322.77,-105 328.77,-105"/>
<polyline fill="none" stroke="red" points="328.77,-105 358.77,-105 "/>
<path fill="none" stroke="red" d="M358.77,-105C364.77,-105 370.77,-111 370.77,-117"/>
<polyline fill="none" stroke="red" points="370.77,-117 370.77,-129 "/>
<path fill="none" stroke="red" d="M370.77,-129C370.77,-135 364.77,-141 358.77,-141"/>
<text text-anchor="middle" x="343.77" y="-118.9" font-family="Times Roman,serif" font-size="14.00">Grdfs</text>
</a>
</g>
<!-- Grdfs&#45;&gt;Rdf_sparql -->
<g id="edge2" class="edge"><title>Grdfs&#45;&gt;Rdf_sparql</title>
<path fill="none" stroke="black" d="M341.701,-104.567C340.078,-90.1034 337.79,-69.7239 335.937,-53.2111"/>
<polygon fill="black" stroke="black" points="339.386,-52.5665 334.793,-43.0193 332.43,-53.3473 339.386,-52.5665"/>
</g>
<!-- Grdf_types -->
<g id="node7" class="node"><title>Grdf_types</title>
<a xlink:href="Grdf_types.html" xlink:title="Grdf_types">
<polygon fill="lightgrey" stroke="lightgrey" points="535.77,-43 467.77,-43 455.77,-31 455.77,-19 467.77,-7 535.77,-7 547.77,-19 547.77,-31 535.77,-43"/>
<path fill="lightgrey" stroke="lightgrey" d="M467.77,-43C461.77,-43 455.77,-37 455.77,-31"/>
<path fill="lightgrey" stroke="lightgrey" d="M455.77,-19C455.77,-13 461.77,-7 467.77,-7"/>
<path fill="lightgrey" stroke="lightgrey" d="M535.77,-7C541.77,-7 547.77,-13 547.77,-19"/>
<path fill="lightgrey" stroke="lightgrey" d="M547.77,-31C547.77,-37 541.77,-43 535.77,-43"/>
<polyline fill="none" stroke="red" points="535.77,-43 467.77,-43 "/>
<path fill="none" stroke="red" d="M467.77,-43C461.77,-43 455.77,-37 455.77,-31"/>
<polyline fill="none" stroke="red" points="455.77,-31 455.77,-19 "/>
<path fill="none" stroke="red" d="M455.77,-19C455.77,-13 461.77,-7 467.77,-7"/>
<polyline fill="none" stroke="red" points="467.77,-7 535.77,-7 "/>
<path fill="none" stroke="red" d="M535.77,-7C541.77,-7 547.77,-13 547.77,-19"/>
<polyline fill="none" stroke="red" points="547.77,-19 547.77,-31 "/>
<path fill="none" stroke="red" d="M547.77,-31C547.77,-37 541.77,-43 535.77,-43"/>
<text text-anchor="middle" x="501.77" y="-20.9" font-family="Times Roman,serif" font-size="14.00">Grdf_types</text>
</a>
</g>
<!-- Grdfs&#45;&gt;Grdf_types -->
<g id="edge4" class="edge"><title>Grdfs&#45;&gt;Grdf_types</title>
<path fill="none" stroke="black" d="M370.931,-106.153C396.598,-90.2331 435.337,-66.2056 464.006,-48.423"/>
<polygon fill="black" stroke="black" points="465.902,-51.366 472.555,-43.1206 462.212,-45.4173 465.902,-51.366"/>
</g>
<!-- Grdf_version -->
<g id="node8" class="node"><title>Grdf_version</title>
<a xlink:href="Grdf_version.html" xlink:title="Grdf_version">
<polygon fill="lightgrey" stroke="lightgrey" points="245.77,-337 165.77,-337 153.77,-325 153.77,-313 165.77,-301 245.77,-301 257.77,-313 257.77,-325 245.77,-337"/>
<path fill="lightgrey" stroke="lightgrey" d="M165.77,-337C159.77,-337 153.77,-331 153.77,-325"/>
<path fill="lightgrey" stroke="lightgrey" d="M153.77,-313C153.77,-307 159.77,-301 165.77,-301"/>
<path fill="lightgrey" stroke="lightgrey" d="M245.77,-301C251.77,-301 257.77,-307 257.77,-313"/>
<path fill="lightgrey" stroke="lightgrey" d="M257.77,-325C257.77,-331 251.77,-337 245.77,-337"/>
<polyline fill="none" stroke="red" points="245.77,-337 165.77,-337 "/>
<path fill="none" stroke="red" d="M165.77,-337C159.77,-337 153.77,-331 153.77,-325"/>
<polyline fill="none" stroke="red" points="153.77,-325 153.77,-313 "/>
<path fill="none" stroke="red" d="M153.77,-313C153.77,-307 159.77,-301 165.77,-301"/>
<polyline fill="none" stroke="red" points="165.77,-301 245.77,-301 "/>
<path fill="none" stroke="red" d="M245.77,-301C251.77,-301 257.77,-307 257.77,-313"/>
<polyline fill="none" stroke="red" points="257.77,-313 257.77,-325 "/>
<path fill="none" stroke="red" d="M257.77,-325C257.77,-331 251.77,-337 245.77,-337"/>
<text text-anchor="middle" x="205.77" y="-314.9" font-family="Times Roman,serif" font-size="14.00">Grdf_version</text>
</a>
</g>
<!-- Grdf_branch -->
<g id="node10" class="node"><title>Grdf_branch</title>
<a xlink:href="Grdf_branch.html" xlink:title="Grdf_branch">
<polygon fill="lightgrey" stroke="lightgrey" points="115.77,-239 39.7701,-239 27.7701,-227 27.7701,-215 39.7701,-203 115.77,-203 127.77,-215 127.77,-227 115.77,-239"/>
<path fill="lightgrey" stroke="lightgrey" d="M39.7701,-239C33.7701,-239 27.7701,-233 27.7701,-227"/>
<path fill="lightgrey" stroke="lightgrey" d="M27.7701,-215C27.7701,-209 33.7701,-203 39.7701,-203"/>
<path fill="lightgrey" stroke="lightgrey" d="M115.77,-203C121.77,-203 127.77,-209 127.77,-215"/>
<path fill="lightgrey" stroke="lightgrey" d="M127.77,-227C127.77,-233 121.77,-239 115.77,-239"/>
<polyline fill="none" stroke="red" points="115.77,-239 39.7701,-239 "/>
<path fill="none" stroke="red" d="M39.7701,-239C33.7701,-239 27.7701,-233 27.7701,-227"/>
<polyline fill="none" stroke="red" points="27.7701,-227 27.7701,-215 "/>
<path fill="none" stroke="red" d="M27.7701,-215C27.7701,-209 33.7701,-203 39.7701,-203"/>
<polyline fill="none" stroke="red" points="39.7701,-203 115.77,-203 "/>
<path fill="none" stroke="red" d="M115.77,-203C121.77,-203 127.77,-209 127.77,-215"/>
<polyline fill="none" stroke="red" points="127.77,-215 127.77,-227 "/>
<path fill="none" stroke="red" d="M127.77,-227C127.77,-233 121.77,-239 115.77,-239"/>
<text text-anchor="middle" x="77.7701" y="-216.9" font-family="Times Roman,serif" font-size="14.00">Grdf_branch</text>
</a>
</g>
<!-- Grdf_version&#45;&gt;Grdf_branch -->
<g id="edge6" class="edge"><title>Grdf_version&#45;&gt;Grdf_branch</title>
<path fill="none" stroke="black" d="M181.994,-300.797C161.608,-285.188 132.064,-262.569 109.633,-245.395"/>
<polygon fill="black" stroke="black" points="111.486,-242.406 101.419,-239.106 107.231,-247.964 111.486,-242.406"/>
</g>
<!-- Grdf_branch&#45;&gt;Uriset -->
<g id="edge30" class="edge"><title>Grdf_branch&#45;&gt;Uriset</title>
<path fill="none" stroke="black" d="M77.7701,-202.567C77.7701,-188.103 77.7701,-167.724 77.7701,-151.211"/>
<polygon fill="black" stroke="black" points="81.2702,-151.019 77.7701,-141.019 74.2702,-151.019 81.2702,-151.019"/>
</g>
<!-- Grdf_branch&#45;&gt;Grdfs -->
<g id="edge32" class="edge"><title>Grdf_branch&#45;&gt;Grdfs</title>
<path fill="none" stroke="black" d="M126.869,-202.911C179.003,-183.704 260.209,-153.786 307.06,-136.525"/>
<polygon fill="black" stroke="black" points="308.339,-139.783 316.513,-133.042 305.919,-133.215 308.339,-139.783"/>
</g>
<!-- Grdf_tool -->
<g id="node11" class="node"><title>Grdf_tool</title>
<a xlink:href="Grdf_tool.html" xlink:title="Grdf_tool">
<polygon fill="lightgrey" stroke="lightgrey" points="105.77,-435 49.7701,-435 37.7701,-423 37.7701,-411 49.7701,-399 105.77,-399 117.77,-411 117.77,-423 105.77,-435"/>
<path fill="lightgrey" stroke="lightgrey" d="M49.7701,-435C43.7701,-435 37.7701,-429 37.7701,-423"/>
<path fill="lightgrey" stroke="lightgrey" d="M37.7701,-411C37.7701,-405 43.7701,-399 49.7701,-399"/>
<path fill="lightgrey" stroke="lightgrey" d="M105.77,-399C111.77,-399 117.77,-405 117.77,-411"/>
<path fill="lightgrey" stroke="lightgrey" d="M117.77,-423C117.77,-429 111.77,-435 105.77,-435"/>
<polyline fill="none" stroke="red" points="105.77,-435 49.7701,-435 "/>
<path fill="none" stroke="red" d="M49.7701,-435C43.7701,-435 37.7701,-429 37.7701,-423"/>
<polyline fill="none" stroke="red" points="37.7701,-423 37.7701,-411 "/>
<path fill="none" stroke="red" d="M37.7701,-411C37.7701,-405 43.7701,-399 49.7701,-399"/>
<polyline fill="none" stroke="red" points="49.7701,-399 105.77,-399 "/>
<path fill="none" stroke="red" d="M105.77,-399C111.77,-399 117.77,-405 117.77,-411"/>
<polyline fill="none" stroke="red" points="117.77,-411 117.77,-423 "/>
<path fill="none" stroke="red" d="M117.77,-423C117.77,-429 111.77,-435 105.77,-435"/>
<text text-anchor="middle" x="77.7701" y="-412.9" font-family="Times Roman,serif" font-size="14.00">Grdf_tool</text>
</a>
</g>
<!-- Grdf_tool&#45;&gt;Grdf_branch -->
<g id="edge8" class="edge"><title>Grdf_tool&#45;&gt;Grdf_branch</title>
<path fill="none" stroke="black" d="M77.7701,-398.912C77.7701,-364.636 77.7701,-290.006 77.7701,-249.138"/>
<polygon fill="black" stroke="black" points="81.2702,-249.044 77.7701,-239.044 74.2702,-249.044 81.2702,-249.044"/>
</g>
<!-- Grdf_port -->
<g id="node13" class="node"><title>Grdf_port</title>
<a xlink:href="Grdf_port.html" xlink:title="Grdf_port">
<polygon fill="lightgrey" stroke="lightgrey" points="409.77,-337 351.77,-337 339.77,-325 339.77,-313 351.77,-301 409.77,-301 421.77,-313 421.77,-325 409.77,-337"/>
<path fill="lightgrey" stroke="lightgrey" d="M351.77,-337C345.77,-337 339.77,-331 339.77,-325"/>
<path fill="lightgrey" stroke="lightgrey" d="M339.77,-313C339.77,-307 345.77,-301 351.77,-301"/>
<path fill="lightgrey" stroke="lightgrey" d="M409.77,-301C415.77,-301 421.77,-307 421.77,-313"/>
<path fill="lightgrey" stroke="lightgrey" d="M421.77,-325C421.77,-331 415.77,-337 409.77,-337"/>
<polyline fill="none" stroke="red" points="409.77,-337 351.77,-337 "/>
<path fill="none" stroke="red" d="M351.77,-337C345.77,-337 339.77,-331 339.77,-325"/>
<polyline fill="none" stroke="red" points="339.77,-325 339.77,-313 "/>
<path fill="none" stroke="red" d="M339.77,-313C339.77,-307 345.77,-301 351.77,-301"/>
<polyline fill="none" stroke="red" points="351.77,-301 409.77,-301 "/>
<path fill="none" stroke="red" d="M409.77,-301C415.77,-301 421.77,-307 421.77,-313"/>
<polyline fill="none" stroke="red" points="421.77,-313 421.77,-325 "/>
<path fill="none" stroke="red" d="M421.77,-325C421.77,-331 415.77,-337 409.77,-337"/>
<text text-anchor="middle" x="380.77" y="-314.9" font-family="Times Roman,serif" font-size="14.00">Grdf_port</text>
</a>
</g>
<!-- Grdf_port&#45;&gt;Urimap -->
<g id="edge10" class="edge"><title>Grdf_port&#45;&gt;Urimap</title>
<path fill="none" stroke="black" d="M353.836,-300.797C330.437,-284.982 296.389,-261.97 270.862,-244.717"/>
<polygon fill="black" stroke="black" points="272.804,-241.806 262.559,-239.106 268.885,-247.605 272.804,-241.806"/>
</g>
<!-- Grdf_parser -->
<g id="node16" class="node"><title>Grdf_parser</title>
<a xlink:href="Grdf_parser.html" xlink:title="Grdf_parser">
<polygon fill="lightgrey" stroke="lightgrey" points="533.77,-141 459.77,-141 447.77,-129 447.77,-117 459.77,-105 533.77,-105 545.77,-117 545.77,-129 533.77,-141"/>
<path fill="lightgrey" stroke="lightgrey" d="M459.77,-141C453.77,-141 447.77,-135 447.77,-129"/>
<path fill="lightgrey" stroke="lightgrey" d="M447.77,-117C447.77,-111 453.77,-105 459.77,-105"/>
<path fill="lightgrey" stroke="lightgrey" d="M533.77,-105C539.77,-105 545.77,-111 545.77,-117"/>
<path fill="lightgrey" stroke="lightgrey" d="M545.77,-129C545.77,-135 539.77,-141 533.77,-141"/>
<polyline fill="none" stroke="red" points="533.77,-141 459.77,-141 "/>
<path fill="none" stroke="red" d="M459.77,-141C453.77,-141 447.77,-135 447.77,-129"/>
<polyline fill="none" stroke="red" points="447.77,-129 447.77,-117 "/>
<path fill="none" stroke="red" d="M447.77,-117C447.77,-111 453.77,-105 459.77,-105"/>
<polyline fill="none" stroke="red" points="459.77,-105 533.77,-105 "/>
<path fill="none" stroke="red" d="M533.77,-105C539.77,-105 545.77,-111 545.77,-117"/>
<polyline fill="none" stroke="red" points="545.77,-117 545.77,-129 "/>
<path fill="none" stroke="red" d="M545.77,-129C545.77,-135 539.77,-141 533.77,-141"/>
<text text-anchor="middle" x="496.77" y="-118.9" font-family="Times Roman,serif" font-size="14.00">Grdf_parser</text>
</a>
</g>
<!-- Grdf_port&#45;&gt;Grdf_parser -->
<g id="edge12" class="edge"><title>Grdf_port&#45;&gt;Grdf_parser</title>
<path fill="none" stroke="black" d="M394.617,-300.72C406.417,-284.801 423.52,-260.904 436.77,-239 454.614,-209.502 472.428,-174.123 483.952,-150.255"/>
<polygon fill="black" stroke="black" points="487.178,-151.621 488.341,-141.09 480.865,-148.598 487.178,-151.621"/>
</g>
<!-- Grdf_ftype -->
<g id="node18" class="node"><title>Grdf_ftype</title>
<a xlink:href="Grdf_ftype.html" xlink:title="Grdf_ftype">
<polygon fill="lightgrey" stroke="lightgrey" points="415.77,-239 351.77,-239 339.77,-227 339.77,-215 351.77,-203 415.77,-203 427.77,-215 427.77,-227 415.77,-239"/>
<path fill="lightgrey" stroke="lightgrey" d="M351.77,-239C345.77,-239 339.77,-233 339.77,-227"/>
<path fill="lightgrey" stroke="lightgrey" d="M339.77,-215C339.77,-209 345.77,-203 351.77,-203"/>
<path fill="lightgrey" stroke="lightgrey" d="M415.77,-203C421.77,-203 427.77,-209 427.77,-215"/>
<path fill="lightgrey" stroke="lightgrey" d="M427.77,-227C427.77,-233 421.77,-239 415.77,-239"/>
<polyline fill="none" stroke="red" points="415.77,-239 351.77,-239 "/>
<path fill="none" stroke="red" d="M351.77,-239C345.77,-239 339.77,-233 339.77,-227"/>
<polyline fill="none" stroke="red" points="339.77,-227 339.77,-215 "/>
<path fill="none" stroke="red" d="M339.77,-215C339.77,-209 345.77,-203 351.77,-203"/>
<polyline fill="none" stroke="red" points="351.77,-203 415.77,-203 "/>
<path fill="none" stroke="red" d="M415.77,-203C421.77,-203 427.77,-209 427.77,-215"/>
<polyline fill="none" stroke="red" points="427.77,-215 427.77,-227 "/>
<path fill="none" stroke="red" d="M427.77,-227C427.77,-233 421.77,-239 415.77,-239"/>
<text text-anchor="middle" x="383.77" y="-216.9" font-family="Times Roman,serif" font-size="14.00">Grdf_ftype</text>
</a>
</g>
<!-- Grdf_port&#45;&gt;Grdf_ftype -->
<g id="edge14" class="edge"><title>Grdf_port&#45;&gt;Grdf_ftype</title>
<path fill="none" stroke="black" d="M381.334,-300.567C381.777,-286.103 382.401,-265.724 382.906,-249.211"/>
<polygon fill="black" stroke="black" points="386.411,-249.122 383.218,-239.019 379.414,-248.907 386.411,-249.122"/>
</g>
<!-- Grdf_parser&#45;&gt;Grdf_types -->
<g id="edge16" class="edge"><title>Grdf_parser&#45;&gt;Grdf_types</title>
<path fill="none" stroke="black" d="M497.711,-104.567C498.448,-90.1034 499.488,-69.7239 500.331,-53.2111"/>
<polygon fill="black" stroke="black" points="503.837,-53.1847 500.851,-43.0193 496.846,-52.8279 503.837,-53.1847"/>
</g>
<!-- Grdf_ftype&#45;&gt;Grdfs -->
<g id="edge24" class="edge"><title>Grdf_ftype&#45;&gt;Grdfs</title>
<path fill="none" stroke="black" d="M376.246,-202.567C370.287,-187.966 361.866,-167.335 355.093,-150.74"/>
<polygon fill="black" stroke="black" points="358.144,-148.955 351.125,-141.019 351.663,-151.6 358.144,-148.955"/>
</g>
<!-- Grdf_intf -->
<g id="node20" class="node"><title>Grdf_intf</title>
<a xlink:href="Grdf_intf.html" xlink:title="Grdf_intf">
<polygon fill="lightgrey" stroke="lightgrey" points="253.77,-435 201.77,-435 189.77,-423 189.77,-411 201.77,-399 253.77,-399 265.77,-411 265.77,-423 253.77,-435"/>
<path fill="lightgrey" stroke="lightgrey" d="M201.77,-435C195.77,-435 189.77,-429 189.77,-423"/>
<path fill="lightgrey" stroke="lightgrey" d="M189.77,-411C189.77,-405 195.77,-399 201.77,-399"/>
<path fill="lightgrey" stroke="lightgrey" d="M253.77,-399C259.77,-399 265.77,-405 265.77,-411"/>
<path fill="lightgrey" stroke="lightgrey" d="M265.77,-423C265.77,-429 259.77,-435 253.77,-435"/>
<polyline fill="none" stroke="red" points="253.77,-435 201.77,-435 "/>
<path fill="none" stroke="red" d="M201.77,-435C195.77,-435 189.77,-429 189.77,-423"/>
<polyline fill="none" stroke="red" points="189.77,-423 189.77,-411 "/>
<path fill="none" stroke="red" d="M189.77,-411C189.77,-405 195.77,-399 201.77,-399"/>
<polyline fill="none" stroke="red" points="201.77,-399 253.77,-399 "/>
<path fill="none" stroke="red" d="M253.77,-399C259.77,-399 265.77,-405 265.77,-411"/>
<polyline fill="none" stroke="red" points="265.77,-411 265.77,-423 "/>
<path fill="none" stroke="red" d="M265.77,-423C265.77,-429 259.77,-435 253.77,-435"/>
<text text-anchor="middle" x="227.77" y="-412.9" font-family="Times Roman,serif" font-size="14.00">Grdf_intf</text>
</a>
</g>
<!-- Grdf_intf&#45;&gt;Grdf_version -->
<g id="edge18" class="edge"><title>Grdf_intf&#45;&gt;Grdf_version</title>
<path fill="none" stroke="black" d="M223.632,-398.567C220.385,-384.103 215.81,-363.724 212.103,-347.211"/>
<polygon fill="black" stroke="black" points="215.421,-346.01 209.815,-337.019 208.591,-347.543 215.421,-346.01"/>
</g>
<!-- Grdf_intf&#45;&gt;Grdf_port -->
<g id="edge20" class="edge"><title>Grdf_intf&#45;&gt;Grdf_port</title>
<path fill="none" stroke="black" d="M256.19,-398.797C280.88,-382.982 316.807,-359.97 343.742,-342.717"/>
<polygon fill="black" stroke="black" points="345.97,-345.447 352.503,-337.106 342.194,-339.552 345.97,-345.447"/>
</g>
<!-- Grdf_init -->
<g id="node23" class="node"><title>Grdf_init</title>
<a xlink:href="Grdf_init.html" xlink:title="Grdf_init">
<polygon fill="lightgrey" stroke="lightgrey" points="686.77,-141 634.77,-141 622.77,-129 622.77,-117 634.77,-105 686.77,-105 698.77,-117 698.77,-129 686.77,-141"/>
<path fill="lightgrey" stroke="lightgrey" d="M634.77,-141C628.77,-141 622.77,-135 622.77,-129"/>
<path fill="lightgrey" stroke="lightgrey" d="M622.77,-117C622.77,-111 628.77,-105 634.77,-105"/>
<path fill="lightgrey" stroke="lightgrey" d="M686.77,-105C692.77,-105 698.77,-111 698.77,-117"/>
<path fill="lightgrey" stroke="lightgrey" d="M698.77,-129C698.77,-135 692.77,-141 686.77,-141"/>
<polyline fill="none" stroke="red" points="686.77,-141 634.77,-141 "/>
<path fill="none" stroke="red" d="M634.77,-141C628.77,-141 622.77,-135 622.77,-129"/>
<polyline fill="none" stroke="red" points="622.77,-129 622.77,-117 "/>
<path fill="none" stroke="red" d="M622.77,-117C622.77,-111 628.77,-105 634.77,-105"/>
<polyline fill="none" stroke="red" points="634.77,-105 686.77,-105 "/>
<path fill="none" stroke="red" d="M686.77,-105C692.77,-105 698.77,-111 698.77,-117"/>
<polyline fill="none" stroke="red" points="698.77,-117 698.77,-129 "/>
<path fill="none" stroke="red" d="M698.77,-129C698.77,-135 692.77,-141 686.77,-141"/>
<text text-anchor="middle" x="660.77" y="-118.9" font-family="Times Roman,serif" font-size="14.00">Grdf_init</text>
</a>
</g>
<!-- Grdf_init&#45;&gt;Grdf_types -->
<g id="edge22" class="edge"><title>Grdf_init&#45;&gt;Grdf_types</title>
<path fill="none" stroke="black" d="M631.236,-104.797C605.466,-88.9133 567.917,-65.7697 539.886,-48.4926"/>
<polygon fill="black" stroke="black" points="541.495,-45.3734 531.146,-43.1059 537.822,-51.3324 541.495,-45.3734"/>
</g>
<!-- Grdf_dot -->
<g id="node26" class="node"><title>Grdf_dot</title>
<a xlink:href="Grdf_dot.html" xlink:title="Grdf_dot">
<polygon fill="lightgrey" stroke="lightgrey" points="178.77,-533 126.77,-533 114.77,-521 114.77,-509 126.77,-497 178.77,-497 190.77,-509 190.77,-521 178.77,-533"/>
<path fill="lightgrey" stroke="lightgrey" d="M126.77,-533C120.77,-533 114.77,-527 114.77,-521"/>
<path fill="lightgrey" stroke="lightgrey" d="M114.77,-509C114.77,-503 120.77,-497 126.77,-497"/>
<path fill="lightgrey" stroke="lightgrey" d="M178.77,-497C184.77,-497 190.77,-503 190.77,-509"/>
<path fill="lightgrey" stroke="lightgrey" d="M190.77,-521C190.77,-527 184.77,-533 178.77,-533"/>
<polyline fill="none" stroke="red" points="178.77,-533 126.77,-533 "/>
<path fill="none" stroke="red" d="M126.77,-533C120.77,-533 114.77,-527 114.77,-521"/>
<polyline fill="none" stroke="red" points="114.77,-521 114.77,-509 "/>
<path fill="none" stroke="red" d="M114.77,-509C114.77,-503 120.77,-497 126.77,-497"/>
<polyline fill="none" stroke="red" points="126.77,-497 178.77,-497 "/>
<path fill="none" stroke="red" d="M178.77,-497C184.77,-497 190.77,-503 190.77,-509"/>
<polyline fill="none" stroke="red" points="190.77,-509 190.77,-521 "/>
<path fill="none" stroke="red" d="M190.77,-521C190.77,-527 184.77,-533 178.77,-533"/>
<text text-anchor="middle" x="152.77" y="-510.9" font-family="Times Roman,serif" font-size="14.00">Grdf_dot</text>
</a>
</g>
<!-- Grdf_dot&#45;&gt;Grdf_tool -->
<g id="edge26" class="edge"><title>Grdf_dot&#45;&gt;Grdf_tool</title>
<path fill="none" stroke="black" d="M138.663,-496.567C127.172,-481.552 110.803,-460.163 97.9292,-443.341"/>
<polygon fill="black" stroke="black" points="100.417,-440.833 91.5603,-435.019 94.8584,-445.088 100.417,-440.833"/>
</g>
<!-- Grdf_dot&#45;&gt;Grdf_intf -->
<g id="edge28" class="edge"><title>Grdf_dot&#45;&gt;Grdf_intf</title>
<path fill="none" stroke="black" d="M166.877,-496.567C178.368,-481.552 194.737,-460.163 207.611,-443.341"/>
<polygon fill="black" stroke="black" points="210.682,-445.088 213.98,-435.019 205.123,-440.833 210.682,-445.088"/>
</g>
<!-- Grdf_constant -->
<g id="node29" class="node"><title>Grdf_constant</title>
<a xlink:href="Grdf_constant.html" xlink:title="Grdf_constant">
<polygon fill="lightgrey" stroke="lightgrey" points="374.77,-533 284.77,-533 272.77,-521 272.77,-509 284.77,-497 374.77,-497 386.77,-509 386.77,-521 374.77,-533"/>
<path fill="lightgrey" stroke="lightgrey" d="M284.77,-533C278.77,-533 272.77,-527 272.77,-521"/>
<path fill="lightgrey" stroke="lightgrey" d="M272.77,-509C272.77,-503 278.77,-497 284.77,-497"/>
<path fill="lightgrey" stroke="lightgrey" d="M374.77,-497C380.77,-497 386.77,-503 386.77,-509"/>
<path fill="lightgrey" stroke="lightgrey" d="M386.77,-521C386.77,-527 380.77,-533 374.77,-533"/>
<polyline fill="none" stroke="red" points="374.77,-533 284.77,-533 "/>
<path fill="none" stroke="red" d="M284.77,-533C278.77,-533 272.77,-527 272.77,-521"/>
<polyline fill="none" stroke="red" points="272.77,-521 272.77,-509 "/>
<path fill="none" stroke="red" d="M272.77,-509C272.77,-503 278.77,-497 284.77,-497"/>
<polyline fill="none" stroke="red" points="284.77,-497 374.77,-497 "/>
<path fill="none" stroke="red" d="M374.77,-497C380.77,-497 386.77,-503 386.77,-509"/>
<polyline fill="none" stroke="red" points="386.77,-509 386.77,-521 "/>
<path fill="none" stroke="red" d="M386.77,-521C386.77,-527 380.77,-533 374.77,-533"/>
<text text-anchor="middle" x="329.77" y="-510.9" font-family="Times Roman,serif" font-size="14.00">Grdf_constant</text>
</a>
</g>
</g>
</svg>
