<?xml version="1.0" encoding="UTF-8" standalone="no"?>
<!DOCTYPE svg PUBLIC "-//W3C//DTD SVG 1.1//EN"
 "http://www.w3.org/Graphics/SVG/1.1/DTD/svg11.dtd">
<!-- Generated by graphviz version 2.26.3 (20100126.1600)
 -->
<!-- Title: G Pages: 1 -->
<svg width="717pt" height="540pt"
 viewBox="0.00 0.00 717.37 540.00" xmlns="http://www.w3.org/2000/svg" xmlns:xlink="http://www.w3.org/1999/xlink">
<g id="graph1" class="graph" transform="scale(0.985401 0.985401) rotate(0) translate(4 544)">
<title>G</title>
<polygon fill="white" stroke="white" points="-4,5 -4,-544 725,-544 725,5 -4,5"/>
<!-- Chn_types -->
<g id="node1" class="node"><title>Chn_types</title>
<a xlink:href="Chn_types.html" xlink:title="Chn_types">
<polygon fill="lightgrey" stroke="lightgrey" points="357.792,-36 293.792,-36 281.792,-24 281.792,-12 293.792,-1.58257e-14 357.792,-5.49056e-15 369.792,-12 369.792,-24 357.792,-36"/>
<path fill="lightgrey" stroke="lightgrey" d="M293.792,-36C287.792,-36 281.792,-30 281.792,-24"/>
<path fill="lightgrey" stroke="lightgrey" d="M281.792,-12C281.792,-6 287.792,-1.67946e-14 293.792,-1.58257e-14"/>
<path fill="lightgrey" stroke="lightgrey" d="M357.792,-5.49056e-15C363.792,-4.52164e-15 369.792,-6 369.792,-12"/>
<path fill="lightgrey" stroke="lightgrey" d="M369.792,-24C369.792,-30 363.792,-36 357.792,-36"/>
<polyline fill="none" stroke="red" points="357.792,-36 293.792,-36 "/>
<path fill="none" stroke="red" d="M293.792,-36C287.792,-36 281.792,-30 281.792,-24"/>
<polyline fill="none" stroke="red" points="281.792,-24 281.792,-12 "/>
<path fill="none" stroke="red" d="M281.792,-12C281.792,-6 287.792,-1.67946e-14 293.792,-1.58257e-14"/>
<polyline fill="none" stroke="red" points="293.792,-1.58257e-14 357.792,-5.49056e-15 "/>
<path fill="none" stroke="red" d="M357.792,-5.49056e-15C363.792,-4.52164e-15 369.792,-6 369.792,-12"/>
<polyline fill="none" stroke="red" points="369.792,-12 369.792,-24 "/>
<path fill="none" stroke="red" d="M369.792,-24C369.792,-30 363.792,-36 357.792,-36"/>
<text text-anchor="middle" x="325.792" y="-13.9" font-family="Times Roman,serif" font-size="14.00">Chn_types</text>
</a>
</g>
<!-- Chn_run -->
<g id="node2" class="node"><title>Chn_run</title>
<a xlink:href="Chn_run.html" xlink:title="Chn_run">
<polygon fill="lightgrey" stroke="lightgrey" points="159.792,-396 107.792,-396 95.7919,-384 95.7919,-372 107.792,-360 159.792,-360 171.792,-372 171.792,-384 159.792,-396"/>
<path fill="lightgrey" stroke="lightgrey" d="M107.792,-396C101.792,-396 95.7919,-390 95.7919,-384"/>
<path fill="lightgrey" stroke="lightgrey" d="M95.7919,-372C95.7919,-366 101.792,-360 107.792,-360"/>
<path fill="lightgrey" stroke="lightgrey" d="M159.792,-360C165.792,-360 171.792,-366 171.792,-372"/>
<path fill="lightgrey" stroke="lightgrey" d="M171.792,-384C171.792,-390 165.792,-396 159.792,-396"/>
<polyline fill="none" stroke="red" points="159.792,-396 107.792,-396 "/>
<path fill="none" stroke="red" d="M107.792,-396C101.792,-396 95.7919,-390 95.7919,-384"/>
<polyline fill="none" stroke="red" points="95.7919,-384 95.7919,-372 "/>
<path fill="none" stroke="red" d="M95.7919,-372C95.7919,-366 101.792,-360 107.792,-360"/>
<polyline fill="none" stroke="red" points="107.792,-360 159.792,-360 "/>
<path fill="none" stroke="red" d="M159.792,-360C165.792,-360 171.792,-366 171.792,-372"/>
<polyline fill="none" stroke="red" points="171.792,-372 171.792,-384 "/>
<path fill="none" stroke="red" d="M171.792,-384C171.792,-390 165.792,-396 159.792,-396"/>
<text text-anchor="middle" x="133.792" y="-373.9" font-family="Times Roman,serif" font-size="14.00">Chn_run</text>
</a>
</g>
<!-- Chn_flat -->
<g id="node4" class="node"><title>Chn_flat</title>
<a xlink:href="Chn_flat.html" xlink:title="Chn_flat">
<polygon fill="lightgrey" stroke="lightgrey" points="350.792,-324 300.792,-324 288.792,-312 288.792,-300 300.792,-288 350.792,-288 362.792,-300 362.792,-312 350.792,-324"/>
<path fill="lightgrey" stroke="lightgrey" d="M300.792,-324C294.792,-324 288.792,-318 288.792,-312"/>
<path fill="lightgrey" stroke="lightgrey" d="M288.792,-300C288.792,-294 294.792,-288 300.792,-288"/>
<path fill="lightgrey" stroke="lightgrey" d="M350.792,-288C356.792,-288 362.792,-294 362.792,-300"/>
<path fill="lightgrey" stroke="lightgrey" d="M362.792,-312C362.792,-318 356.792,-324 350.792,-324"/>
<polyline fill="none" stroke="red" points="350.792,-324 300.792,-324 "/>
<path fill="none" stroke="red" d="M300.792,-324C294.792,-324 288.792,-318 288.792,-312"/>
<polyline fill="none" stroke="red" points="288.792,-312 288.792,-300 "/>
<path fill="none" stroke="red" d="M288.792,-300C288.792,-294 294.792,-288 300.792,-288"/>
<polyline fill="none" stroke="red" points="300.792,-288 350.792,-288 "/>
<path fill="none" stroke="red" d="M350.792,-288C356.792,-288 362.792,-294 362.792,-300"/>
<polyline fill="none" stroke="red" points="362.792,-300 362.792,-312 "/>
<path fill="none" stroke="red" d="M362.792,-312C362.792,-318 356.792,-324 350.792,-324"/>
<text text-anchor="middle" x="325.792" y="-301.9" font-family="Times Roman,serif" font-size="14.00">Chn_flat</text>
</a>
</g>
<!-- Chn_run&#45;&gt;Chn_flat -->
<g id="edge2" class="edge"><title>Chn_run&#45;&gt;Chn_flat</title>
<path fill="none" stroke="black" d="M172.184,-363.603C203.061,-352.024 246.555,-335.714 279.383,-323.403"/>
<polygon fill="black" stroke="black" points="280.636,-326.671 288.771,-319.883 278.178,-320.117 280.636,-326.671"/>
</g>
<!-- Chn_io -->
<g id="node8" class="node"><title>Chn_io</title>
<a xlink:href="Chn_io.html" xlink:title="Chn_io">
<polygon fill="lightgrey" stroke="lightgrey" points="345.792,-252 305.792,-252 293.792,-240 293.792,-228 305.792,-216 345.792,-216 357.792,-228 357.792,-240 345.792,-252"/>
<path fill="lightgrey" stroke="lightgrey" d="M305.792,-252C299.792,-252 293.792,-246 293.792,-240"/>
<path fill="lightgrey" stroke="lightgrey" d="M293.792,-228C293.792,-222 299.792,-216 305.792,-216"/>
<path fill="lightgrey" stroke="lightgrey" d="M345.792,-216C351.792,-216 357.792,-222 357.792,-228"/>
<path fill="lightgrey" stroke="lightgrey" d="M357.792,-240C357.792,-246 351.792,-252 345.792,-252"/>
<polyline fill="none" stroke="red" points="345.792,-252 305.792,-252 "/>
<path fill="none" stroke="red" d="M305.792,-252C299.792,-252 293.792,-246 293.792,-240"/>
<polyline fill="none" stroke="red" points="293.792,-240 293.792,-228 "/>
<path fill="none" stroke="red" d="M293.792,-228C293.792,-222 299.792,-216 305.792,-216"/>
<polyline fill="none" stroke="red" points="305.792,-216 345.792,-216 "/>
<path fill="none" stroke="red" d="M345.792,-216C351.792,-216 357.792,-222 357.792,-228"/>
<polyline fill="none" stroke="red" points="357.792,-228 357.792,-240 "/>
<path fill="none" stroke="red" d="M357.792,-240C357.792,-246 351.792,-252 345.792,-252"/>
<text text-anchor="middle" x="325.792" y="-229.9" font-family="Times Roman,serif" font-size="14.00">Chn_io</text>
</a>
</g>
<!-- Chn_flat&#45;&gt;Chn_io -->
<g id="edge12" class="edge"><title>Chn_flat&#45;&gt;Chn_io</title>
<path fill="none" stroke="black" d="M325.792,-287.831C325.792,-280.131 325.792,-270.974 325.792,-262.417"/>
<polygon fill="black" stroke="black" points="329.292,-262.413 325.792,-252.413 322.292,-262.413 329.292,-262.413"/>
</g>
<!-- Chn_parser -->
<g id="node5" class="node"><title>Chn_parser</title>
<a xlink:href="Chn_parser.html" xlink:title="Chn_parser">
<polygon fill="lightgrey" stroke="lightgrey" points="360.792,-180 290.792,-180 278.792,-168 278.792,-156 290.792,-144 360.792,-144 372.792,-156 372.792,-168 360.792,-180"/>
<path fill="lightgrey" stroke="lightgrey" d="M290.792,-180C284.792,-180 278.792,-174 278.792,-168"/>
<path fill="lightgrey" stroke="lightgrey" d="M278.792,-156C278.792,-150 284.792,-144 290.792,-144"/>
<path fill="lightgrey" stroke="lightgrey" d="M360.792,-144C366.792,-144 372.792,-150 372.792,-156"/>
<path fill="lightgrey" stroke="lightgrey" d="M372.792,-168C372.792,-174 366.792,-180 360.792,-180"/>
<polyline fill="none" stroke="red" points="360.792,-180 290.792,-180 "/>
<path fill="none" stroke="red" d="M290.792,-180C284.792,-180 278.792,-174 278.792,-168"/>
<polyline fill="none" stroke="red" points="278.792,-168 278.792,-156 "/>
<path fill="none" stroke="red" d="M278.792,-156C278.792,-150 284.792,-144 290.792,-144"/>
<polyline fill="none" stroke="red" points="290.792,-144 360.792,-144 "/>
<path fill="none" stroke="red" d="M360.792,-144C366.792,-144 372.792,-150 372.792,-156"/>
<polyline fill="none" stroke="red" points="372.792,-156 372.792,-168 "/>
<path fill="none" stroke="red" d="M372.792,-168C372.792,-174 366.792,-180 360.792,-180"/>
<text text-anchor="middle" x="325.792" y="-157.9" font-family="Times Roman,serif" font-size="14.00">Chn_parser</text>
</a>
</g>
<!-- Chn_ast -->
<g id="node7" class="node"><title>Chn_ast</title>
<a xlink:href="Chn_ast.html" xlink:title="Chn_ast">
<polygon fill="lightgrey" stroke="lightgrey" points="349.792,-108 301.792,-108 289.792,-96 289.792,-84 301.792,-72 349.792,-72 361.792,-84 361.792,-96 349.792,-108"/>
<path fill="lightgrey" stroke="lightgrey" d="M301.792,-108C295.792,-108 289.792,-102 289.792,-96"/>
<path fill="lightgrey" stroke="lightgrey" d="M289.792,-84C289.792,-78 295.792,-72 301.792,-72"/>
<path fill="lightgrey" stroke="lightgrey" d="M349.792,-72C355.792,-72 361.792,-78 361.792,-84"/>
<path fill="lightgrey" stroke="lightgrey" d="M361.792,-96C361.792,-102 355.792,-108 349.792,-108"/>
<polyline fill="none" stroke="red" points="349.792,-108 301.792,-108 "/>
<path fill="none" stroke="red" d="M301.792,-108C295.792,-108 289.792,-102 289.792,-96"/>
<polyline fill="none" stroke="red" points="289.792,-96 289.792,-84 "/>
<path fill="none" stroke="red" d="M289.792,-84C289.792,-78 295.792,-72 301.792,-72"/>
<polyline fill="none" stroke="red" points="301.792,-72 349.792,-72 "/>
<path fill="none" stroke="red" d="M349.792,-72C355.792,-72 361.792,-78 361.792,-84"/>
<polyline fill="none" stroke="red" points="361.792,-84 361.792,-96 "/>
<path fill="none" stroke="red" d="M361.792,-96C361.792,-102 355.792,-108 349.792,-108"/>
<text text-anchor="middle" x="325.792" y="-85.9" font-family="Times Roman,serif" font-size="14.00">Chn_ast</text>
</a>
</g>
<!-- Chn_parser&#45;&gt;Chn_ast -->
<g id="edge4" class="edge"><title>Chn_parser&#45;&gt;Chn_ast</title>
<path fill="none" stroke="black" d="M325.792,-143.831C325.792,-136.131 325.792,-126.974 325.792,-118.417"/>
<polygon fill="black" stroke="black" points="329.292,-118.413 325.792,-108.413 322.292,-118.413 329.292,-118.413"/>
</g>
<!-- Chn_ast&#45;&gt;Chn_types -->
<g id="edge16" class="edge"><title>Chn_ast&#45;&gt;Chn_types</title>
<path fill="none" stroke="black" d="M325.792,-71.8314C325.792,-64.131 325.792,-54.9743 325.792,-46.4166"/>
<polygon fill="black" stroke="black" points="329.292,-46.4132 325.792,-36.4133 322.292,-46.4133 329.292,-46.4132"/>
</g>
<!-- Chn_io&#45;&gt;Chn_parser -->
<g id="edge6" class="edge"><title>Chn_io&#45;&gt;Chn_parser</title>
<path fill="none" stroke="black" d="M325.792,-215.831C325.792,-208.131 325.792,-198.974 325.792,-190.417"/>
<polygon fill="black" stroke="black" points="329.292,-190.413 325.792,-180.413 322.292,-190.413 329.292,-190.413"/>
</g>
<!-- Chn_inst_query -->
<g id="node10" class="node"><title>Chn_inst_query</title>
<a xlink:href="Chn_inst_query.html" xlink:title="Chn_inst_query">
<polygon fill="lightgrey" stroke="lightgrey" points="567.792,-396 467.792,-396 455.792,-384 455.792,-372 467.792,-360 567.792,-360 579.792,-372 579.792,-384 567.792,-396"/>
<path fill="lightgrey" stroke="lightgrey" d="M467.792,-396C461.792,-396 455.792,-390 455.792,-384"/>
<path fill="lightgrey" stroke="lightgrey" d="M455.792,-372C455.792,-366 461.792,-360 467.792,-360"/>
<path fill="lightgrey" stroke="lightgrey" d="M567.792,-360C573.792,-360 579.792,-366 579.792,-372"/>
<path fill="lightgrey" stroke="lightgrey" d="M579.792,-384C579.792,-390 573.792,-396 567.792,-396"/>
<polyline fill="none" stroke="red" points="567.792,-396 467.792,-396 "/>
<path fill="none" stroke="red" d="M467.792,-396C461.792,-396 455.792,-390 455.792,-384"/>
<polyline fill="none" stroke="red" points="455.792,-384 455.792,-372 "/>
<path fill="none" stroke="red" d="M455.792,-372C455.792,-366 461.792,-360 467.792,-360"/>
<polyline fill="none" stroke="red" points="467.792,-360 567.792,-360 "/>
<path fill="none" stroke="red" d="M567.792,-360C573.792,-360 579.792,-366 579.792,-372"/>
<polyline fill="none" stroke="red" points="579.792,-372 579.792,-384 "/>
<path fill="none" stroke="red" d="M579.792,-384C579.792,-390 573.792,-396 567.792,-396"/>
<text text-anchor="middle" x="517.792" y="-373.9" font-family="Times Roman,serif" font-size="14.00">Chn_inst_query</text>
</a>
</g>
<!-- Chn_inst_query&#45;&gt;Chn_flat -->
<g id="edge8" class="edge"><title>Chn_inst_query&#45;&gt;Chn_flat</title>
<path fill="none" stroke="black" d="M469.342,-359.831C439.699,-348.715 401.964,-334.565 372.623,-323.562"/>
<polygon fill="black" stroke="black" points="373.61,-320.194 363.018,-319.96 371.152,-326.748 373.61,-320.194"/>
</g>
<!-- Chn_inst -->
<g id="node12" class="node"><title>Chn_inst</title>
<a xlink:href="Chn_inst.html" xlink:title="Chn_inst">
<polygon fill="lightgrey" stroke="lightgrey" points="159.792,-468 107.792,-468 95.7919,-456 95.7919,-444 107.792,-432 159.792,-432 171.792,-444 171.792,-456 159.792,-468"/>
<path fill="lightgrey" stroke="lightgrey" d="M107.792,-468C101.792,-468 95.7919,-462 95.7919,-456"/>
<path fill="lightgrey" stroke="lightgrey" d="M95.7919,-444C95.7919,-438 101.792,-432 107.792,-432"/>
<path fill="lightgrey" stroke="lightgrey" d="M159.792,-432C165.792,-432 171.792,-438 171.792,-444"/>
<path fill="lightgrey" stroke="lightgrey" d="M171.792,-456C171.792,-462 165.792,-468 159.792,-468"/>
<polyline fill="none" stroke="red" points="159.792,-468 107.792,-468 "/>
<path fill="none" stroke="red" d="M107.792,-468C101.792,-468 95.7919,-462 95.7919,-456"/>
<polyline fill="none" stroke="red" points="95.7919,-456 95.7919,-444 "/>
<path fill="none" stroke="red" d="M95.7919,-444C95.7919,-438 101.792,-432 107.792,-432"/>
<polyline fill="none" stroke="red" points="107.792,-432 159.792,-432 "/>
<path fill="none" stroke="red" d="M159.792,-432C165.792,-432 171.792,-438 171.792,-444"/>
<polyline fill="none" stroke="red" points="171.792,-444 171.792,-456 "/>
<path fill="none" stroke="red" d="M171.792,-456C171.792,-462 165.792,-468 159.792,-468"/>
<text text-anchor="middle" x="133.792" y="-445.9" font-family="Times Roman,serif" font-size="14.00">Chn_inst</text>
</a>
</g>
<!-- Chn_inst&#45;&gt;Chn_run -->
<g id="edge10" class="edge"><title>Chn_inst&#45;&gt;Chn_run</title>
<path fill="none" stroke="black" d="M133.792,-431.831C133.792,-424.131 133.792,-414.974 133.792,-406.417"/>
<polygon fill="black" stroke="black" points="137.292,-406.413 133.792,-396.413 130.292,-406.413 137.292,-406.413"/>
</g>
<!-- Chn_exec -->
<g id="node15" class="node"><title>Chn_exec</title>
<a xlink:href="Chn_exec.html" xlink:title="Chn_exec">
<polygon fill="lightgrey" stroke="lightgrey" points="162.792,-540 104.792,-540 92.7919,-528 92.7919,-516 104.792,-504 162.792,-504 174.792,-516 174.792,-528 162.792,-540"/>
<path fill="lightgrey" stroke="lightgrey" d="M104.792,-540C98.7919,-540 92.7919,-534 92.7919,-528"/>
<path fill="lightgrey" stroke="lightgrey" d="M92.7919,-516C92.7919,-510 98.7919,-504 104.792,-504"/>
<path fill="lightgrey" stroke="lightgrey" d="M162.792,-504C168.792,-504 174.792,-510 174.792,-516"/>
<path fill="lightgrey" stroke="lightgrey" d="M174.792,-528C174.792,-534 168.792,-540 162.792,-540"/>
<polyline fill="none" stroke="red" points="162.792,-540 104.792,-540 "/>
<path fill="none" stroke="red" d="M104.792,-540C98.7919,-540 92.7919,-534 92.7919,-528"/>
<polyline fill="none" stroke="red" points="92.7919,-528 92.7919,-516 "/>
<path fill="none" stroke="red" d="M92.7919,-516C92.7919,-510 98.7919,-504 104.792,-504"/>
<polyline fill="none" stroke="red" points="104.792,-504 162.792,-504 "/>
<path fill="none" stroke="red" d="M162.792,-504C168.792,-504 174.792,-510 174.792,-516"/>
<polyline fill="none" stroke="red" points="174.792,-516 174.792,-528 "/>
<path fill="none" stroke="red" d="M174.792,-528C174.792,-534 168.792,-540 162.792,-540"/>
<text text-anchor="middle" x="133.792" y="-517.9" font-family="Times Roman,serif" font-size="14.00">Chn_exec</text>
</a>
</g>
<!-- Chn_exec&#45;&gt;Chn_inst -->
<g id="edge14" class="edge"><title>Chn_exec&#45;&gt;Chn_inst</title>
<path fill="none" stroke="black" d="M133.792,-503.831C133.792,-496.131 133.792,-486.974 133.792,-478.417"/>
<polygon fill="black" stroke="black" points="137.292,-478.413 133.792,-468.413 130.292,-478.413 137.292,-478.413"/>
</g>
</g>
</svg>
