<?xml version="1.0" encoding="UTF-8" standalone="no"?>
<!DOCTYPE svg PUBLIC "-//W3C//DTD SVG 1.1//EN"
 "http://www.w3.org/Graphics/SVG/1.1/DTD/svg11.dtd">
<!-- Generated by graphviz version 2.26.3 (20100126.1600)
 -->
<!-- Title: G Pages: 1 -->
<svg width="718pt" height="540pt"
 viewBox="0.00 0.00 717.54 540.00" xmlns="http://www.w3.org/2000/svg" xmlns:xlink="http://www.w3.org/1999/xlink">
<g id="graph1" class="graph" transform="scale(0.922289 0.922289) rotate(0) translate(4 581.5)">
<title>G</title>
<polygon fill="white" stroke="white" points="-4,5 -4,-581.5 775,-581.5 775,5 -4,5"/>
<!-- Version -->
<g id="node1" class="node"><title>Version</title>
<a xlink:href="Version.html" xlink:title="Version">
<polygon fill="lightgrey" stroke="lightgrey" points="56,-538 12,-538 2.36848e-14,-526 1.18424e-14,-514 12,-502 56,-502 68,-514 68,-526 56,-538"/>
<path fill="lightgrey" stroke="lightgrey" d="M12,-538C6,-538 2.96059e-14,-532 2.36848e-14,-526"/>
<path fill="lightgrey" stroke="lightgrey" d="M1.18424e-14,-514C5.92119e-15,-508 6,-502 12,-502"/>
<path fill="lightgrey" stroke="lightgrey" d="M56,-502C62,-502 68,-508 68,-514"/>
<path fill="lightgrey" stroke="lightgrey" d="M68,-526C68,-532 62,-538 56,-538"/>
<polyline fill="none" stroke="red" points="56,-538 12,-538 "/>
<path fill="none" stroke="red" d="M12,-538C6,-538 2.96059e-14,-532 2.36848e-14,-526"/>
<polyline fill="none" stroke="red" points="2.36848e-14,-526 1.18424e-14,-514 "/>
<path fill="none" stroke="red" d="M1.18424e-14,-514C5.92119e-15,-508 6,-502 12,-502"/>
<polyline fill="none" stroke="red" points="12,-502 56,-502 "/>
<path fill="none" stroke="red" d="M56,-502C62,-502 68,-508 68,-514"/>
<polyline fill="none" stroke="red" points="68,-514 68,-526 "/>
<path fill="none" stroke="red" d="M68,-526C68,-532 62,-538 56,-538"/>
<text text-anchor="middle" x="34" y="-515.9" font-family="Times Roman,serif" font-size="14.00">Version</text>
</a>
</g>
<!-- Tokens -->
<g id="node2" class="node"><title>Tokens</title>
<a xlink:href="Tokens.html" xlink:title="Tokens">
<polygon fill="lightgrey" stroke="lightgrey" points="57,-307 19,-307 7,-295 7,-283 19,-271 57,-271 69,-283 69,-295 57,-307"/>
<path fill="lightgrey" stroke="lightgrey" d="M19,-307C13,-307 7,-301 7,-295"/>
<path fill="lightgrey" stroke="lightgrey" d="M7,-283C7,-277 13,-271 19,-271"/>
<path fill="lightgrey" stroke="lightgrey" d="M57,-271C63,-271 69,-277 69,-283"/>
<path fill="lightgrey" stroke="lightgrey" d="M69,-295C69,-301 63,-307 57,-307"/>
<polyline fill="none" stroke="red" points="57,-307 19,-307 "/>
<path fill="none" stroke="red" d="M19,-307C13,-307 7,-301 7,-295"/>
<polyline fill="none" stroke="red" points="7,-295 7,-283 "/>
<path fill="none" stroke="red" d="M7,-283C7,-277 13,-271 19,-271"/>
<polyline fill="none" stroke="red" points="19,-271 57,-271 "/>
<path fill="none" stroke="red" d="M57,-271C63,-271 69,-277 69,-283"/>
<polyline fill="none" stroke="red" points="69,-283 69,-295 "/>
<path fill="none" stroke="red" d="M69,-295C69,-301 63,-307 57,-307"/>
<text text-anchor="middle" x="38" y="-284.9" font-family="Times Roman,serif" font-size="14.00">Tokens</text>
</a>
</g>
<!-- Sset -->
<g id="node3" class="node"><title>Sset</title>
<a xlink:href="Sset.html" xlink:title="Sset">
<polygon fill="lightgrey" stroke="lightgrey" points="278,-538 248,-538 236,-526 236,-514 248,-502 278,-502 290,-514 290,-526 278,-538"/>
<path fill="lightgrey" stroke="lightgrey" d="M248,-538C242,-538 236,-532 236,-526"/>
<path fill="lightgrey" stroke="lightgrey" d="M236,-514C236,-508 242,-502 248,-502"/>
<path fill="lightgrey" stroke="lightgrey" d="M278,-502C284,-502 290,-508 290,-514"/>
<path fill="lightgrey" stroke="lightgrey" d="M290,-526C290,-532 284,-538 278,-538"/>
<polyline fill="none" stroke="red" points="278,-538 248,-538 "/>
<path fill="none" stroke="red" d="M248,-538C242,-538 236,-532 236,-526"/>
<polyline fill="none" stroke="red" points="236,-526 236,-514 "/>
<path fill="none" stroke="red" d="M236,-514C236,-508 242,-502 248,-502"/>
<polyline fill="none" stroke="red" points="248,-502 278,-502 "/>
<path fill="none" stroke="red" d="M278,-502C284,-502 290,-508 290,-514"/>
<polyline fill="none" stroke="red" points="290,-514 290,-526 "/>
<path fill="none" stroke="red" d="M290,-526C290,-532 284,-538 278,-538"/>
<text text-anchor="middle" x="263" y="-515.9" font-family="Times Roman,serif" font-size="14.00">Sset</text>
</a>
</g>
<!-- Smap -->
<g id="node4" class="node"><title>Smap</title>
<a xlink:href="Smap.html" xlink:title="Smap">
<polygon fill="lightgrey" stroke="lightgrey" points="350,-538 320,-538 308,-526 308,-514 320,-502 350,-502 362,-514 362,-526 350,-538"/>
<path fill="lightgrey" stroke="lightgrey" d="M320,-538C314,-538 308,-532 308,-526"/>
<path fill="lightgrey" stroke="lightgrey" d="M308,-514C308,-508 314,-502 320,-502"/>
<path fill="lightgrey" stroke="lightgrey" d="M350,-502C356,-502 362,-508 362,-514"/>
<path fill="lightgrey" stroke="lightgrey" d="M362,-526C362,-532 356,-538 350,-538"/>
<polyline fill="none" stroke="red" points="350,-538 320,-538 "/>
<path fill="none" stroke="red" d="M320,-538C314,-538 308,-532 308,-526"/>
<polyline fill="none" stroke="red" points="308,-526 308,-514 "/>
<path fill="none" stroke="red" d="M308,-514C308,-508 314,-502 320,-502"/>
<polyline fill="none" stroke="red" points="320,-502 350,-502 "/>
<path fill="none" stroke="red" d="M350,-502C356,-502 362,-508 362,-514"/>
<polyline fill="none" stroke="red" points="362,-514 362,-526 "/>
<path fill="none" stroke="red" d="M362,-526C362,-532 356,-538 350,-538"/>
<text text-anchor="middle" x="335" y="-515.9" font-family="Times Roman,serif" font-size="14.00">Smap</text>
</a>
</g>
<!-- Reporter -->
<g id="node5" class="node"><title>Reporter</title>
<a xlink:href="Reporter.html" xlink:title="Reporter">
<polygon fill="lightgrey" stroke="lightgrey" points="444,-538 392,-538 380,-526 380,-514 392,-502 444,-502 456,-514 456,-526 444,-538"/>
<path fill="lightgrey" stroke="lightgrey" d="M392,-538C386,-538 380,-532 380,-526"/>
<path fill="lightgrey" stroke="lightgrey" d="M380,-514C380,-508 386,-502 392,-502"/>
<path fill="lightgrey" stroke="lightgrey" d="M444,-502C450,-502 456,-508 456,-514"/>
<path fill="lightgrey" stroke="lightgrey" d="M456,-526C456,-532 450,-538 444,-538"/>
<polyline fill="none" stroke="red" points="444,-538 392,-538 "/>
<path fill="none" stroke="red" d="M392,-538C386,-538 380,-532 380,-526"/>
<polyline fill="none" stroke="red" points="380,-526 380,-514 "/>
<path fill="none" stroke="red" d="M380,-514C380,-508 386,-502 392,-502"/>
<polyline fill="none" stroke="red" points="392,-502 444,-502 "/>
<path fill="none" stroke="red" d="M444,-502C450,-502 456,-508 456,-514"/>
<polyline fill="none" stroke="red" points="456,-514 456,-526 "/>
<path fill="none" stroke="red" d="M456,-526C456,-532 450,-538 444,-538"/>
<text text-anchor="middle" x="418" y="-515.9" font-family="Times Roman,serif" font-size="14.00">Reporter</text>
</a>
</g>
<!-- Misc -->
<g id="node6" class="node"><title>Misc</title>
<a xlink:href="Misc.html" xlink:title="Misc">
<polygon fill="lightgrey" stroke="lightgrey" points="202,-307 172,-307 160,-295 160,-283 172,-271 202,-271 214,-283 214,-295 202,-307"/>
<path fill="lightgrey" stroke="lightgrey" d="M172,-307C166,-307 160,-301 160,-295"/>
<path fill="lightgrey" stroke="lightgrey" d="M160,-283C160,-277 166,-271 172,-271"/>
<path fill="lightgrey" stroke="lightgrey" d="M202,-271C208,-271 214,-277 214,-283"/>
<path fill="lightgrey" stroke="lightgrey" d="M214,-295C214,-301 208,-307 202,-307"/>
<polyline fill="none" stroke="red" points="202,-307 172,-307 "/>
<path fill="none" stroke="red" d="M172,-307C166,-307 160,-301 160,-295"/>
<polyline fill="none" stroke="red" points="160,-295 160,-283 "/>
<path fill="none" stroke="red" d="M160,-283C160,-277 166,-271 172,-271"/>
<polyline fill="none" stroke="red" points="172,-271 202,-271 "/>
<path fill="none" stroke="red" d="M202,-271C208,-271 214,-277 214,-283"/>
<polyline fill="none" stroke="red" points="214,-283 214,-295 "/>
<path fill="none" stroke="red" d="M214,-295C214,-301 208,-307 202,-307"/>
<text text-anchor="middle" x="187" y="-284.9" font-family="Times Roman,serif" font-size="14.00">Misc</text>
</a>
</g>
<!-- Loc -->
<g id="node7" class="node"><title>Loc</title>
<a xlink:href="Loc.html" xlink:title="Loc">
<polygon fill="lightgrey" stroke="lightgrey" points="129,-307 99,-307 87,-295 87,-283 99,-271 129,-271 141,-283 141,-295 129,-307"/>
<path fill="lightgrey" stroke="lightgrey" d="M99,-307C93,-307 87,-301 87,-295"/>
<path fill="lightgrey" stroke="lightgrey" d="M87,-283C87,-277 93,-271 99,-271"/>
<path fill="lightgrey" stroke="lightgrey" d="M129,-271C135,-271 141,-277 141,-283"/>
<path fill="lightgrey" stroke="lightgrey" d="M141,-295C141,-301 135,-307 129,-307"/>
<polyline fill="none" stroke="red" points="129,-307 99,-307 "/>
<path fill="none" stroke="red" d="M99,-307C93,-307 87,-301 87,-295"/>
<polyline fill="none" stroke="red" points="87,-295 87,-283 "/>
<path fill="none" stroke="red" d="M87,-283C87,-277 93,-271 99,-271"/>
<polyline fill="none" stroke="red" points="99,-271 129,-271 "/>
<path fill="none" stroke="red" d="M129,-271C135,-271 141,-277 141,-283"/>
<polyline fill="none" stroke="red" points="141,-283 141,-295 "/>
<path fill="none" stroke="red" d="M141,-295C141,-301 135,-307 129,-307"/>
<text text-anchor="middle" x="114" y="-284.9" font-family="Times Roman,serif" font-size="14.00">Loc</text>
</a>
</g>
<!-- Checks -->
<g id="node9" class="node"><title>Checks</title>
<a xlink:href="Checks.html" xlink:title="Checks">
<polygon fill="lightgrey" stroke="lightgrey" points="134,-76 94,-76 82,-64 82,-52 94,-40 134,-40 146,-52 146,-64 134,-76"/>
<path fill="lightgrey" stroke="lightgrey" d="M94,-76C88,-76 82,-70 82,-64"/>
<path fill="lightgrey" stroke="lightgrey" d="M82,-52C82,-46 88,-40 94,-40"/>
<path fill="lightgrey" stroke="lightgrey" d="M134,-40C140,-40 146,-46 146,-52"/>
<path fill="lightgrey" stroke="lightgrey" d="M146,-64C146,-70 140,-76 134,-76"/>
<polyline fill="none" stroke="red" points="134,-76 94,-76 "/>
<path fill="none" stroke="red" d="M94,-76C88,-76 82,-70 82,-64"/>
<polyline fill="none" stroke="red" points="82,-64 82,-52 "/>
<path fill="none" stroke="red" d="M82,-52C82,-46 88,-40 94,-40"/>
<polyline fill="none" stroke="red" points="94,-40 134,-40 "/>
<path fill="none" stroke="red" d="M134,-40C140,-40 146,-46 146,-52"/>
<polyline fill="none" stroke="red" points="146,-52 146,-64 "/>
<path fill="none" stroke="red" d="M146,-64C146,-70 140,-76 134,-76"/>
<text text-anchor="middle" x="114" y="-53.9" font-family="Times Roman,serif" font-size="14.00">Checks</text>
</a>
</g>
<!-- Loc&#45;&gt;Checks -->
<g id="edge2" class="edge"><title>Loc&#45;&gt;Checks</title>
<path fill="none" stroke="black" d="M114,-270.874C114,-230.728 114,-134.081 114,-86.0581"/>
<polygon fill="black" stroke="black" points="117.5,-86.0419 114,-76.042 110.5,-86.042 117.5,-86.0419"/>
</g>
<!-- Lexer -->
<g id="node10" class="node"><title>Lexer</title>
<a xlink:href="Lexer.html" xlink:title="Lexer">
<polygon fill="lightgrey" stroke="lightgrey" points="128,-538 98,-538 86,-526 86,-514 98,-502 128,-502 140,-514 140,-526 128,-538"/>
<path fill="lightgrey" stroke="lightgrey" d="M98,-538C92,-538 86,-532 86,-526"/>
<path fill="lightgrey" stroke="lightgrey" d="M86,-514C86,-508 92,-502 98,-502"/>
<path fill="lightgrey" stroke="lightgrey" d="M128,-502C134,-502 140,-508 140,-514"/>
<path fill="lightgrey" stroke="lightgrey" d="M140,-526C140,-532 134,-538 128,-538"/>
<polyline fill="none" stroke="red" points="128,-538 98,-538 "/>
<path fill="none" stroke="red" d="M98,-538C92,-538 86,-532 86,-526"/>
<polyline fill="none" stroke="red" points="86,-526 86,-514 "/>
<path fill="none" stroke="red" d="M86,-514C86,-508 92,-502 98,-502"/>
<polyline fill="none" stroke="red" points="98,-502 128,-502 "/>
<path fill="none" stroke="red" d="M128,-502C134,-502 140,-508 140,-514"/>
<polyline fill="none" stroke="red" points="140,-514 140,-526 "/>
<path fill="none" stroke="red" d="M140,-526C140,-532 134,-538 128,-538"/>
<text text-anchor="middle" x="113" y="-515.9" font-family="Times Roman,serif" font-size="14.00">Lexer</text>
</a>
</g>
<!-- Lexer&#45;&gt;Tokens -->
<g id="edge8" class="edge"><title>Lexer&#45;&gt;Tokens</title>
<path fill="none" stroke="black" d="M107.115,-501.874C94.0532,-461.644 62.5697,-364.675 47.0117,-316.756"/>
<polygon fill="black" stroke="black" points="50.2749,-315.472 43.8578,-307.042 43.617,-317.634 50.2749,-315.472"/>
</g>
<!-- Lexer&#45;&gt;Misc -->
<g id="edge6" class="edge"><title>Lexer&#45;&gt;Misc</title>
<path fill="none" stroke="black" d="M118.807,-501.874C131.694,-461.644 162.758,-364.675 178.108,-316.756"/>
<polygon fill="black" stroke="black" points="181.503,-317.633 181.22,-307.042 174.836,-315.497 181.503,-317.633"/>
</g>
<!-- Lexer&#45;&gt;Loc -->
<g id="edge4" class="edge"><title>Lexer&#45;&gt;Loc</title>
<path fill="none" stroke="black" d="M113.078,-501.874C113.252,-461.728 113.671,-365.081 113.879,-317.058"/>
<polygon fill="black" stroke="black" points="117.378,-317.057 113.922,-307.042 110.379,-317.027 117.378,-317.057"/>
</g>
<!-- Install -->
<g id="node14" class="node"><title>Install</title>
<a xlink:href="Install.html" xlink:title="Install">
<polygon fill="lightgrey" stroke="lightgrey" points="520,-538 486,-538 474,-526 474,-514 486,-502 520,-502 532,-514 532,-526 520,-538"/>
<path fill="lightgrey" stroke="lightgrey" d="M486,-538C480,-538 474,-532 474,-526"/>
<path fill="lightgrey" stroke="lightgrey" d="M474,-514C474,-508 480,-502 486,-502"/>
<path fill="lightgrey" stroke="lightgrey" d="M520,-502C526,-502 532,-508 532,-514"/>
<path fill="lightgrey" stroke="lightgrey" d="M532,-526C532,-532 526,-538 520,-538"/>
<polyline fill="none" stroke="red" points="520,-538 486,-538 "/>
<path fill="none" stroke="red" d="M486,-538C480,-538 474,-532 474,-526"/>
<polyline fill="none" stroke="red" points="474,-526 474,-514 "/>
<path fill="none" stroke="red" d="M474,-514C474,-508 480,-502 486,-502"/>
<polyline fill="none" stroke="red" points="486,-502 520,-502 "/>
<path fill="none" stroke="red" d="M520,-502C526,-502 532,-508 532,-514"/>
<polyline fill="none" stroke="red" points="532,-514 532,-526 "/>
<path fill="none" stroke="red" d="M532,-526C532,-532 526,-538 520,-538"/>
<text text-anchor="middle" x="503" y="-515.9" font-family="Times Roman,serif" font-size="14.00">Install</text>
</a>
</g>
<!-- Graph -->
<g id="node15" class="node"><title>Graph</title>
<a xlink:href="Graph.html" xlink:title="Graph">
<polygon fill="lightgrey" stroke="lightgrey" points="596,-538 562,-538 550,-526 550,-514 562,-502 596,-502 608,-514 608,-526 596,-538"/>
<path fill="lightgrey" stroke="lightgrey" d="M562,-538C556,-538 550,-532 550,-526"/>
<path fill="lightgrey" stroke="lightgrey" d="M550,-514C550,-508 556,-502 562,-502"/>
<path fill="lightgrey" stroke="lightgrey" d="M596,-502C602,-502 608,-508 608,-514"/>
<path fill="lightgrey" stroke="lightgrey" d="M608,-526C608,-532 602,-538 596,-538"/>
<polyline fill="none" stroke="red" points="596,-538 562,-538 "/>
<path fill="none" stroke="red" d="M562,-538C556,-538 550,-532 550,-526"/>
<polyline fill="none" stroke="red" points="550,-526 550,-514 "/>
<path fill="none" stroke="red" d="M550,-514C550,-508 556,-502 562,-502"/>
<polyline fill="none" stroke="red" points="562,-502 596,-502 "/>
<path fill="none" stroke="red" d="M596,-502C602,-502 608,-508 608,-514"/>
<polyline fill="none" stroke="red" points="608,-514 608,-526 "/>
<path fill="none" stroke="red" d="M608,-526C608,-532 602,-538 596,-538"/>
<text text-anchor="middle" x="579" y="-515.9" font-family="Times Roman,serif" font-size="14.00">Graph</text>
</a>
</g>
<!-- Find -->
<g id="node16" class="node"><title>Find</title>
<a xlink:href="Find.html" xlink:title="Find">
<polygon fill="lightgrey" stroke="lightgrey" points="668,-538 638,-538 626,-526 626,-514 638,-502 668,-502 680,-514 680,-526 668,-538"/>
<path fill="lightgrey" stroke="lightgrey" d="M638,-538C632,-538 626,-532 626,-526"/>
<path fill="lightgrey" stroke="lightgrey" d="M626,-514C626,-508 632,-502 638,-502"/>
<path fill="lightgrey" stroke="lightgrey" d="M668,-502C674,-502 680,-508 680,-514"/>
<path fill="lightgrey" stroke="lightgrey" d="M680,-526C680,-532 674,-538 668,-538"/>
<polyline fill="none" stroke="red" points="668,-538 638,-538 "/>
<path fill="none" stroke="red" d="M638,-538C632,-538 626,-532 626,-526"/>
<polyline fill="none" stroke="red" points="626,-526 626,-514 "/>
<path fill="none" stroke="red" d="M626,-514C626,-508 632,-502 638,-502"/>
<polyline fill="none" stroke="red" points="638,-502 668,-502 "/>
<path fill="none" stroke="red" d="M668,-502C674,-502 680,-508 680,-514"/>
<polyline fill="none" stroke="red" points="680,-514 680,-526 "/>
<path fill="none" stroke="red" d="M680,-526C680,-532 674,-538 668,-538"/>
<text text-anchor="middle" x="653" y="-515.9" font-family="Times Roman,serif" font-size="14.00">Find</text>
</a>
</g>
<!-- Config -->
<g id="node17" class="node"><title>Config</title>
<a xlink:href="Config.html" xlink:title="Config">
<polygon fill="lightgrey" stroke="lightgrey" points="206,-538 170,-538 158,-526 158,-514 170,-502 206,-502 218,-514 218,-526 206,-538"/>
<path fill="lightgrey" stroke="lightgrey" d="M170,-538C164,-538 158,-532 158,-526"/>
<path fill="lightgrey" stroke="lightgrey" d="M158,-514C158,-508 164,-502 170,-502"/>
<path fill="lightgrey" stroke="lightgrey" d="M206,-502C212,-502 218,-508 218,-514"/>
<path fill="lightgrey" stroke="lightgrey" d="M218,-526C218,-532 212,-538 206,-538"/>
<polyline fill="none" stroke="red" points="206,-538 170,-538 "/>
<path fill="none" stroke="red" d="M170,-538C164,-538 158,-532 158,-526"/>
<polyline fill="none" stroke="red" points="158,-526 158,-514 "/>
<path fill="none" stroke="red" d="M158,-514C158,-508 164,-502 170,-502"/>
<polyline fill="none" stroke="red" points="170,-502 206,-502 "/>
<path fill="none" stroke="red" d="M206,-502C212,-502 218,-508 218,-514"/>
<polyline fill="none" stroke="red" points="218,-514 218,-526 "/>
<path fill="none" stroke="red" d="M218,-526C218,-532 212,-538 206,-538"/>
<text text-anchor="middle" x="188" y="-515.9" font-family="Times Roman,serif" font-size="14.00">Config</text>
</a>
</g>
<!-- Config&#45;&gt;Misc -->
<g id="edge10" class="edge"><title>Config&#45;&gt;Misc</title>
<path fill="none" stroke="black" d="M187.922,-501.874C187.748,-461.728 187.329,-365.081 187.121,-317.058"/>
<polygon fill="black" stroke="black" points="190.621,-317.027 187.078,-307.042 183.622,-317.057 190.621,-317.027"/>
</g>
<!-- Cmdline -->
<g id="node19" class="node"><title>Cmdline</title>
<a xlink:href="Cmdline.html" xlink:title="Cmdline">
<polygon fill="lightgrey" stroke="lightgrey" points="758,-538 710,-538 698,-526 698,-514 710,-502 758,-502 770,-514 770,-526 758,-538"/>
<path fill="lightgrey" stroke="lightgrey" d="M710,-538C704,-538 698,-532 698,-526"/>
<path fill="lightgrey" stroke="lightgrey" d="M698,-514C698,-508 704,-502 710,-502"/>
<path fill="lightgrey" stroke="lightgrey" d="M758,-502C764,-502 770,-508 770,-514"/>
<path fill="lightgrey" stroke="lightgrey" d="M770,-526C770,-532 764,-538 758,-538"/>
<polyline fill="none" stroke="red" points="758,-538 710,-538 "/>
<path fill="none" stroke="red" d="M710,-538C704,-538 698,-532 698,-526"/>
<polyline fill="none" stroke="red" points="698,-526 698,-514 "/>
<path fill="none" stroke="red" d="M698,-514C698,-508 704,-502 710,-502"/>
<polyline fill="none" stroke="red" points="710,-502 758,-502 "/>
<path fill="none" stroke="red" d="M758,-502C764,-502 770,-508 770,-514"/>
<polyline fill="none" stroke="red" points="770,-514 770,-526 "/>
<path fill="none" stroke="red" d="M770,-526C770,-532 764,-538 758,-538"/>
<text text-anchor="middle" x="734" y="-515.9" font-family="Times Roman,serif" font-size="14.00">Cmdline</text>
</a>
</g>
</g>
</svg>
