<?xml version="1.0" encoding="UTF-8" standalone="no"?>
<!DOCTYPE svg PUBLIC "-//W3C//DTD SVG 1.1//EN"
 "http://www.w3.org/Graphics/SVG/1.1/DTD/svg11.dtd">
<!-- Generated by graphviz version 2.26.3 (20100126.1600)
 -->
<!-- Title: G Pages: 1 -->
<svg width="717pt" height="540pt"
 viewBox="0.00 0.00 717.37 540.00" xmlns="http://www.w3.org/2000/svg" xmlns:xlink="http://www.w3.org/1999/xlink">
<g id="graph1" class="graph" transform="scale(0.985401 0.985401) rotate(0) translate(4 544)">
<title>G</title>
<polygon fill="white" stroke="white" points="-4,5 -4,-544 725,-544 725,5 -4,5"/>
<!-- Rest_xpage -->
<g id="node1" class="node"><title>Rest_xpage</title>
<a xlink:href="Rest_xpage.html" xlink:title="Rest_xpage">
<polygon fill="lightgrey" stroke="lightgrey" points="201,-72 131,-72 119,-60 119,-48 131,-36 201,-36 213,-48 213,-60 201,-72"/>
<path fill="lightgrey" stroke="lightgrey" d="M131,-72C125,-72 119,-66 119,-60"/>
<path fill="lightgrey" stroke="lightgrey" d="M119,-48C119,-42 125,-36 131,-36"/>
<path fill="lightgrey" stroke="lightgrey" d="M201,-36C207,-36 213,-42 213,-48"/>
<path fill="lightgrey" stroke="lightgrey" d="M213,-60C213,-66 207,-72 201,-72"/>
<polyline fill="none" stroke="red" points="201,-72 131,-72 "/>
<path fill="none" stroke="red" d="M131,-72C125,-72 119,-66 119,-60"/>
<polyline fill="none" stroke="red" points="119,-60 119,-48 "/>
<path fill="none" stroke="red" d="M119,-48C119,-42 125,-36 131,-36"/>
<polyline fill="none" stroke="red" points="131,-36 201,-36 "/>
<path fill="none" stroke="red" d="M201,-36C207,-36 213,-42 213,-48"/>
<polyline fill="none" stroke="red" points="213,-48 213,-60 "/>
<path fill="none" stroke="red" d="M213,-60C213,-66 207,-72 201,-72"/>
<text text-anchor="middle" x="166" y="-49.9" font-family="Times Roman,serif" font-size="14.00">Rest_xpage</text>
</a>
</g>
<!-- Rest_xhtml -->
<g id="node2" class="node"><title>Rest_xhtml</title>
<a xlink:href="Rest_xhtml.html" xlink:title="Rest_xhtml">
<polygon fill="lightgrey" stroke="lightgrey" points="395,-288 325,-288 313,-276 313,-264 325,-252 395,-252 407,-264 407,-276 395,-288"/>
<path fill="lightgrey" stroke="lightgrey" d="M325,-288C319,-288 313,-282 313,-276"/>
<path fill="lightgrey" stroke="lightgrey" d="M313,-264C313,-258 319,-252 325,-252"/>
<path fill="lightgrey" stroke="lightgrey" d="M395,-252C401,-252 407,-258 407,-264"/>
<path fill="lightgrey" stroke="lightgrey" d="M407,-276C407,-282 401,-288 395,-288"/>
<polyline fill="none" stroke="red" points="395,-288 325,-288 "/>
<path fill="none" stroke="red" d="M325,-288C319,-288 313,-282 313,-276"/>
<polyline fill="none" stroke="red" points="313,-276 313,-264 "/>
<path fill="none" stroke="red" d="M313,-264C313,-258 319,-252 325,-252"/>
<polyline fill="none" stroke="red" points="325,-252 395,-252 "/>
<path fill="none" stroke="red" d="M395,-252C401,-252 407,-258 407,-264"/>
<polyline fill="none" stroke="red" points="407,-264 407,-276 "/>
<path fill="none" stroke="red" d="M407,-276C407,-282 401,-288 395,-288"/>
<text text-anchor="middle" x="360" y="-265.9" font-family="Times Roman,serif" font-size="14.00">Rest_xhtml</text>
</a>
</g>
<!-- Rest_xhtml&#45;&gt;Rest_xpage -->
<g id="edge2" class="edge"><title>Rest_xhtml&#45;&gt;Rest_xpage</title>
<path fill="none" stroke="black" d="M343.793,-251.955C309.344,-213.6 228.745,-123.86 188.996,-79.6038"/>
<polygon fill="black" stroke="black" points="191.583,-77.2462 182.297,-72.1451 186.375,-81.9236 191.583,-77.2462"/>
</g>
<!-- Rest_types -->
<g id="node5" class="node"><title>Rest_types</title>
<a xlink:href="Rest_types.html" xlink:title="Rest_types">
<polygon fill="lightgrey" stroke="lightgrey" points="592,-72 524,-72 512,-60 512,-48 524,-36 592,-36 604,-48 604,-60 592,-72"/>
<path fill="lightgrey" stroke="lightgrey" d="M524,-72C518,-72 512,-66 512,-60"/>
<path fill="lightgrey" stroke="lightgrey" d="M512,-48C512,-42 518,-36 524,-36"/>
<path fill="lightgrey" stroke="lightgrey" d="M592,-36C598,-36 604,-42 604,-48"/>
<path fill="lightgrey" stroke="lightgrey" d="M604,-60C604,-66 598,-72 592,-72"/>
<polyline fill="none" stroke="red" points="592,-72 524,-72 "/>
<path fill="none" stroke="red" d="M524,-72C518,-72 512,-66 512,-60"/>
<polyline fill="none" stroke="red" points="512,-60 512,-48 "/>
<path fill="none" stroke="red" d="M512,-48C512,-42 518,-36 524,-36"/>
<polyline fill="none" stroke="red" points="524,-36 592,-36 "/>
<path fill="none" stroke="red" d="M592,-36C598,-36 604,-42 604,-48"/>
<polyline fill="none" stroke="red" points="604,-48 604,-60 "/>
<path fill="none" stroke="red" d="M604,-60C604,-66 598,-72 592,-72"/>
<text text-anchor="middle" x="558" y="-49.9" font-family="Times Roman,serif" font-size="14.00">Rest_types</text>
</a>
</g>
<!-- Rest_xhtml&#45;&gt;Rest_types -->
<g id="edge4" class="edge"><title>Rest_xhtml&#45;&gt;Rest_types</title>
<path fill="none" stroke="black" d="M376.541,-251.955C411.7,-213.6 493.961,-123.86 534.53,-79.6038"/>
<polygon fill="black" stroke="black" points="537.19,-81.8817 541.367,-72.1451 532.03,-77.1516 537.19,-81.8817"/>
</g>
<!-- Rest_query -->
<g id="node6" class="node"><title>Rest_query</title>
<a xlink:href="Rest_query.html" xlink:title="Rest_query">
<polygon fill="lightgrey" stroke="lightgrey" points="395,-504 325,-504 313,-492 313,-480 325,-468 395,-468 407,-480 407,-492 395,-504"/>
<path fill="lightgrey" stroke="lightgrey" d="M325,-504C319,-504 313,-498 313,-492"/>
<path fill="lightgrey" stroke="lightgrey" d="M313,-480C313,-474 319,-468 325,-468"/>
<path fill="lightgrey" stroke="lightgrey" d="M395,-468C401,-468 407,-474 407,-480"/>
<path fill="lightgrey" stroke="lightgrey" d="M407,-492C407,-498 401,-504 395,-504"/>
<polyline fill="none" stroke="red" points="395,-504 325,-504 "/>
<path fill="none" stroke="red" d="M325,-504C319,-504 313,-498 313,-492"/>
<polyline fill="none" stroke="red" points="313,-492 313,-480 "/>
<path fill="none" stroke="red" d="M313,-480C313,-474 319,-468 325,-468"/>
<polyline fill="none" stroke="red" points="325,-468 395,-468 "/>
<path fill="none" stroke="red" d="M395,-468C401,-468 407,-474 407,-480"/>
<polyline fill="none" stroke="red" points="407,-480 407,-492 "/>
<path fill="none" stroke="red" d="M407,-492C407,-498 401,-504 395,-504"/>
<text text-anchor="middle" x="360" y="-481.9" font-family="Times Roman,serif" font-size="14.00">Rest_query</text>
</a>
</g>
<!-- Rest_query&#45;&gt;Rest_xhtml -->
<g id="edge6" class="edge"><title>Rest_query&#45;&gt;Rest_xhtml</title>
<path fill="none" stroke="black" d="M360,-467.955C360,-430.394 360,-343.554 360,-298.41"/>
<polygon fill="black" stroke="black" points="363.5,-298.145 360,-288.145 356.5,-298.145 363.5,-298.145"/>
</g>
</g>
</svg>
