<?xml version="1.0" encoding="UTF-8" standalone="no"?>
<!DOCTYPE svg PUBLIC "-//W3C//DTD SVG 1.1//EN"
 "http://www.w3.org/Graphics/SVG/1.1/DTD/svg11.dtd">
<!-- Generated by graphviz version 2.26.3 (20100126.1600)
 -->
<!-- Title: G Pages: 1 -->
<svg width="717pt" height="540pt"
 viewBox="0.00 0.00 717.37 540.00" xmlns="http://www.w3.org/2000/svg" xmlns:xlink="http://www.w3.org/1999/xlink">
<g id="graph1" class="graph" transform="scale(0.985401 0.985401) rotate(0) translate(4 544)">
<title>G</title>
<polygon fill="white" stroke="white" points="-4,5 -4,-544 725,-544 725,5 -4,5"/>
<!-- Ind_types -->
<g id="node1" class="node"><title>Ind_types</title>
<a xlink:href="Ind_types.html" xlink:title="Ind_types">
<polygon fill="lightgrey" stroke="lightgrey" points="389,-108 331,-108 319,-96 319,-84 331,-72 389,-72 401,-84 401,-96 389,-108"/>
<path fill="lightgrey" stroke="lightgrey" d="M331,-108C325,-108 319,-102 319,-96"/>
<path fill="lightgrey" stroke="lightgrey" d="M319,-84C319,-78 325,-72 331,-72"/>
<path fill="lightgrey" stroke="lightgrey" d="M389,-72C395,-72 401,-78 401,-84"/>
<path fill="lightgrey" stroke="lightgrey" d="M401,-96C401,-102 395,-108 389,-108"/>
<polyline fill="none" stroke="red" points="389,-108 331,-108 "/>
<path fill="none" stroke="red" d="M331,-108C325,-108 319,-102 319,-96"/>
<polyline fill="none" stroke="red" points="319,-96 319,-84 "/>
<path fill="none" stroke="red" d="M319,-84C319,-78 325,-72 331,-72"/>
<polyline fill="none" stroke="red" points="331,-72 389,-72 "/>
<path fill="none" stroke="red" d="M389,-72C395,-72 401,-78 401,-84"/>
<polyline fill="none" stroke="red" points="401,-84 401,-96 "/>
<path fill="none" stroke="red" d="M401,-96C401,-102 395,-108 389,-108"/>
<text text-anchor="middle" x="360" y="-85.9" font-family="Times Roman,serif" font-size="14.00">Ind_types</text>
</a>
</g>
<!-- Ind_io -->
<g id="node2" class="node"><title>Ind_io</title>
<a xlink:href="Ind_io.html" xlink:title="Ind_io">
<polygon fill="lightgrey" stroke="lightgrey" points="377,-468 343,-468 331,-456 331,-444 343,-432 377,-432 389,-444 389,-456 377,-468"/>
<path fill="lightgrey" stroke="lightgrey" d="M343,-468C337,-468 331,-462 331,-456"/>
<path fill="lightgrey" stroke="lightgrey" d="M331,-444C331,-438 337,-432 343,-432"/>
<path fill="lightgrey" stroke="lightgrey" d="M377,-432C383,-432 389,-438 389,-444"/>
<path fill="lightgrey" stroke="lightgrey" d="M389,-456C389,-462 383,-468 377,-468"/>
<polyline fill="none" stroke="red" points="377,-468 343,-468 "/>
<path fill="none" stroke="red" d="M343,-468C337,-468 331,-462 331,-456"/>
<polyline fill="none" stroke="red" points="331,-456 331,-444 "/>
<path fill="none" stroke="red" d="M331,-444C331,-438 337,-432 343,-432"/>
<polyline fill="none" stroke="red" points="343,-432 377,-432 "/>
<path fill="none" stroke="red" d="M377,-432C383,-432 389,-438 389,-444"/>
<polyline fill="none" stroke="red" points="389,-444 389,-456 "/>
<path fill="none" stroke="red" d="M389,-456C389,-462 383,-468 377,-468"/>
<text text-anchor="middle" x="360" y="-445.9" font-family="Times Roman,serif" font-size="14.00">Ind_io</text>
</a>
</g>
<!-- Ind_io&#45;&gt;Ind_types -->
<g id="edge2" class="edge"><title>Ind_io&#45;&gt;Ind_types</title>
<path fill="none" stroke="black" d="M360,-431.653C360,-373.034 360,-189.955 360,-118.743"/>
<polygon fill="black" stroke="black" points="363.5,-118.31 360,-108.31 356.5,-118.31 363.5,-118.31"/>
</g>
</g>
</svg>
