<?xml version="1.0" encoding="UTF-8" standalone="no"?>
<!-- Created with Inkscape (http://www.inkscape.org/) -->

<svg
   xmlns:dc="http://purl.org/dc/elements/1.1/"
   xmlns:cc="http://creativecommons.org/ns#"
   xmlns:rdf="http://www.w3.org/1999/02/22-rdf-syntax-ns#"
   xmlns:svg="http://www.w3.org/2000/svg"
   xmlns="http://www.w3.org/2000/svg"
   xmlns:sodipodi="http://sodipodi.sourceforge.net/DTD/sodipodi-0.dtd"
   xmlns:inkscape="http://www.inkscape.org/namespaces/inkscape"
   width="1000"
   height="210"
   id="svg2"
   version="1.1"
   inkscape:version="0.48.3.1 r9886"
   sodipodi:docname="example-flow.svg">
  <defs
     id="defs4">
    <marker
       inkscape:stockid="Arrow2Lend"
       orient="auto"
       refY="0"
       refX="0"
       id="Arrow2Lend"
       style="overflow:visible">
      <path
         id="path3896"
         style="fill-rule:evenodd;stroke-width:0.625;stroke-linejoin:round"
         d="M 8.7185878,4.0337352 -2.2072895,0.01601326 8.7185884,-4.0017078 c -1.7454984,2.3720609 -1.7354408,5.6174519 -6e-7,8.035443 z"
         transform="matrix(-1.1,0,0,-1.1,-1.1,0)"
         inkscape:connector-curvature="0" />
    </marker>
    <marker
       inkscape:stockid="Arrow2Lend"
       orient="auto"
       refY="0"
       refX="0"
       id="Arrow2Lend-3"
       style="overflow:visible">
      <path
         inkscape:connector-curvature="0"
         id="path3896-5"
         style="fill-rule:evenodd;stroke-width:0.625;stroke-linejoin:round"
         d="M 8.7185878,4.0337352 -2.2072895,0.01601326 8.7185884,-4.0017078 c -1.7454984,2.3720609 -1.7354408,5.6174519 -6e-7,8.035443 z"
         transform="matrix(-1.1,0,0,-1.1,-1.1,0)" />
    </marker>
    <marker
       inkscape:stockid="Arrow2Lend"
       orient="auto"
       refY="0"
       refX="0"
       id="Arrow2Lend-6"
       style="overflow:visible">
      <path
         inkscape:connector-curvature="0"
         id="path3896-1"
         style="fill-rule:evenodd;stroke-width:0.625;stroke-linejoin:round"
         d="M 8.7185878,4.0337352 -2.2072895,0.01601326 8.7185884,-4.0017078 c -1.7454984,2.3720609 -1.7354408,5.6174519 -6e-7,8.035443 z"
         transform="matrix(-1.1,0,0,-1.1,-1.1,0)" />
    </marker>
    <marker
       inkscape:stockid="Arrow2Lend"
       orient="auto"
       refY="0"
       refX="0"
       id="Arrow2Lend-1"
       style="overflow:visible">
      <path
         inkscape:connector-curvature="0"
         id="path3896-0"
         style="fill-rule:evenodd;stroke-width:0.625;stroke-linejoin:round"
         d="M 8.7185878,4.0337352 -2.2072895,0.01601326 8.7185884,-4.0017078 c -1.7454984,2.3720609 -1.7354408,5.6174519 -6e-7,8.035443 z"
         transform="matrix(-1.1,0,0,-1.1,-1.1,0)" />
    </marker>
  </defs>
  <sodipodi:namedview
     id="base"
     pagecolor="#ffffff"
     bordercolor="#666666"
     borderopacity="1.0"
     inkscape:pageopacity="0.0"
     inkscape:pageshadow="2"
     inkscape:zoom="0.71"
     inkscape:cx="244.85135"
     inkscape:cy="514.28571"
     inkscape:document-units="px"
     inkscape:current-layer="layer1"
     showgrid="false"
     inkscape:window-width="1669"
     inkscape:window-height="1149"
     inkscape:window-x="3"
     inkscape:window-y="24"
     inkscape:window-maximized="0" />
  <metadata
     id="metadata7">
    <rdf:RDF>
      <cc:Work
         rdf:about="">
        <dc:format>image/svg+xml</dc:format>
        <dc:type
           rdf:resource="http://purl.org/dc/dcmitype/StillImage" />
        <dc:title></dc:title>
      </cc:Work>
    </rdf:RDF>
  </metadata>
  <g
     inkscape:label="Calque 1"
     inkscape:groupmode="layer"
     id="layer1"
     transform="translate(0,-842.36218)">
    <g
       id="g3818"
       transform="matrix(0.74624613,0,0,0.74624613,120.29309,450.64059)"
       style="stroke:#594949;stroke-opacity:1">
      <path
         style="fill:none;stroke:#594949;stroke-width:2.68683481;stroke-linecap:round;stroke-linejoin:round;stroke-miterlimit:4;stroke-dashoffset:0"
         d="m 142.08228,610.68146 178.73281,0 c 9.06544,0 16.36362,7.29817 16.36362,16.36362 l 0,71.00646 c 0,9.06544 -7.29818,16.36362 -16.36362,16.36362 l -178.73281,0 c -9.06544,0 -16.36362,-7.29818 -16.36362,-16.36362 l 0,-71.00646 c 0,-9.06545 7.29818,-16.36362 16.36362,-16.36362 z"
         id="rect2985" />
      <g
         style="font-size:32px;font-style:normal;font-variant:normal;font-weight:normal;font-stretch:normal;text-align:start;line-height:125%;letter-spacing:0px;word-spacing:0px;writing-mode:lr-tb;text-anchor:start;fill:#000000;fill-opacity:1;stroke:#594949;font-family:Courier 10 Pitch;-inkscape-font-specification:Courier 10 Pitch"
         id="text3755">
        <path
           d="m 136.58681,669.0603 c 0,0.992 0.416,1.504 1.152,1.504 0.352,0 0.864,-0.256 1.6,-0.736 1.76,0.448 3.328,0.704 4.736,0.704 3.904,0 6.112,-1.952 6.112,-4.64 0,-3.072 -2.144,-4.288 -6.272,-4.384 -3.072,-0.064 -4.864,-0.224 -4.864,-1.888 0,-1.248 1.184,-2.304 3.264,-2.304 1.632,0 2.784,0.384 3.968,1.44 0.928,0.832 1.248,1.632 1.952,1.632 0.768,0 1.056,-0.544 1.056,-1.568 l 0,-1.824 c 0,-1.056 -0.352,-1.568 -1.056,-1.568 -0.832,0 -1.152,0.608 -1.6,0.608 -0.448,0 -1.696,-0.704 -3.968,-0.704 -3.872,0 -6.016,1.792 -6.016,4.384 0,2.784 2.272,4.32 6.528,4.32 0.448,0 0.736,0 0.896,0 2.368,0 3.52,0.448 3.52,2.048 0,1.408 -1.408,2.432 -3.68,2.432 -2.112,0 -3.904,-0.768 -4.736,-1.856 -0.608,-0.8 -0.512,-1.664 -1.472,-1.664 -0.832,0 -1.12,0.448 -1.12,1.28 l 0,2.784"
           style=""
           id="path4451" />
        <path
           d="m 163.48481,667.9083 c -2.912,0 -4.928,-2.08 -4.928,-4.896 0,-2.816 2.016,-4.896 4.928,-4.896 2.944,0 4.96,2.08 4.96,4.896 0,2.91199 -2.08,4.896 -4.96,4.896 m -4.864,6.272 0,-6.24 c 1.28,1.472 3.2,2.272 5.408,2.272 4.096,0 7.104,-2.88001 7.104,-7.04 0,-4.384 -3.264,-7.456 -7.36,-7.456 -1.984,0 -3.712,0.736 -5.12,2.176 l 0,-1.504 c 0,-0.448 -0.288,-0.64 -0.896,-0.64 l -2.4,0 c -0.832,0 -1.248,0.352 -1.248,1.088 0,0.8 0.48,1.12 1.472,1.12 0.224,0 0.48,0 0.704,0 l 0,16.224 c -0.096,0 -0.192,0 -0.288,0 -1.312,0 -1.888,0.224 -1.888,1.12 0,0.736 0.416,1.12 1.248,1.12 l 6.912,0 c 0.928,0 1.312,-0.256 1.312,-1.12 0,-0.736 -0.384,-1.12 -1.184,-1.12 l -3.776,0"
           style=""
           id="path4453" />
        <path
           d="m 180.87881,651.9723 0,16 -4.32,0 c -0.864,0 -1.312,0.352 -1.312,1.088 0,0.736 0.416,1.12 1.248,1.12 l 11.52,0 c 0.928,0 1.28,-0.224 1.28,-1.12 0,-0.768 -0.384,-1.088 -1.184,-1.088 l -4.864,0 0,-17.6 c 0,-0.384 -0.288,-0.64 -0.896,-0.64 l -5.152,0 c -0.832,0 -1.248,0.384 -1.248,1.12 0,0.8 0.448,1.088 1.472,1.088 0.16,0 0.448,0.032 0.8,0.032 l 2.656,0"
           style=""
           id="path4455" />
        <path
           d="m 202.62481,667.9723 0,-11.584 c 0,-0.384 -0.288,-0.64 -0.896,-0.64 l -4.576,0 c -0.832,0 -1.248,0.352 -1.248,1.088 0,0.736 0.448,1.12 1.312,1.12 l 3.04,0 0,10.016 -4.768,0 c -0.864,0 -1.312,0.352 -1.312,1.088 0,0.736 0.416,1.12 1.248,1.12 l 12.128,0 c 0.928,0 1.28,-0.224 1.28,-1.12 0,-0.768 -0.384,-1.088 -1.184,-1.088 l -5.024,0 m -2.912,-16.736 c 0,1.28 0.32,1.536 1.632,1.536 1.504,0 1.6,-0.352 1.6,-1.984 0,-1.632 -0.16,-2.112 -1.6,-2.112 -1.44,0 -1.632,0.48 -1.632,2.56"
           style=""
           id="path4457" />
        <path
           d="m 224.69081,656.6123 -6.144,0 0,-3.168 c 0,-1.536 -0.128,-2.176 -1.248,-2.176 -0.832,0 -1.216,0.448 -1.216,1.312 0,0.416 0,0.704 0,0.832 l 0,3.2 -1.728,0 c -1.504,0 -2.144,0.096 -2.144,1.12 0,0.768 0.384,1.088 1.248,1.088 l 2.624,0 0,5.216 c 0,0.16 0,0.32 0,0.48 0,1.44 0.032,2.688 0.576,3.616 0.896,1.568 2.56,2.336 4.96,2.336 1.472,0 3.104,-0.416 5.056,-1.184 1.152,-0.448 1.728,-0.896 1.728,-1.632 0,-0.576 -0.512,-1.12 -1.088,-1.12 -1.248,0 -3.328,1.664 -5.856,1.664 -2.752,0 -2.944,-1.664 -2.944,-4.16 l 0,-5.216 6.336,0 c 0.864,0 1.312,-0.352 1.312,-1.088 0,-0.8 -0.48,-1.12 -1.472,-1.12"
           style=""
           id="path4459" />
        <path
           d="m 233.15681,664.4843 12.96,0 c 0.384,0 0.736,-0.352 0.736,-0.736 l 0,-1.664 c 0,-0.384 -0.256,-0.64 -0.736,-0.64 l -12.96,0 c -0.416,0 -0.672,0.256 -0.672,0.64 l 0,1.664 c 0,0.448 0.256,0.736 0.672,0.736"
           style=""
           id="path4461" />
        <path
           d="m 263.19081,656.6123 -6.144,0 0,-3.168 c 0,-1.536 -0.128,-2.176 -1.248,-2.176 -0.832,0 -1.216,0.448 -1.216,1.312 0,0.416 0,0.704 0,0.832 l 0,3.2 -1.728,0 c -1.504,0 -2.144,0.096 -2.144,1.12 0,0.768 0.384,1.088 1.248,1.088 l 2.624,0 0,5.216 c 0,0.16 0,0.32 0,0.48 0,1.44 0.032,2.688 0.576,3.616 0.896,1.568 2.56,2.336 4.96,2.336 1.472,0 3.104,-0.416 5.056,-1.184 1.152,-0.448 1.728,-0.896 1.728,-1.632 0,-0.576 -0.512,-1.12 -1.088,-1.12 -1.248,0 -3.328,1.664 -5.856,1.664 -2.752,0 -2.944,-1.664 -2.944,-4.16 l 0,-5.216 6.336,0 c 0.864,0 1.312,-0.352 1.312,-1.088 0,-0.8 -0.48,-1.12 -1.472,-1.12"
           style=""
           id="path4463" />
        <path
           d="m 272.96881,661.6043 c 0.608,-2.592 2.624,-4.128 5.376,-4.128 2.528,0 4.512,1.632 4.8,4.128 l -10.176,0 m -0.064,2.048 10.496,0 c 1.92,0 2.592,0 2.592,-1.472 0,-3.488 -2.912,-6.848 -7.648,-6.848 -4.83199,0 -8.16,3.104 -8.16,7.584 0,4.67199 3.00801,7.648 7.84,7.648 2.112,0 4.384,-0.512 6.528,-1.568 0.928,-0.448 1.376,-0.928 1.376,-1.568 0,-0.576 -0.48,-1.024 -1.088,-1.024 -1.408,0 -3.424,1.952 -6.592,1.952 -3.232,0 -5.184,-1.69601 -5.344,-4.704"
           style=""
           id="path4465" />
        <path
           d="m 294.01081,667.9723 3.584,-3.84 3.936,3.84 -0.864,0 c -0.928,0 -1.408,0.448 -1.408,1.12 0,0.768 0.544,1.088 1.6,1.088 l 3.2,0 c 1.376,0 1.888,-0.16 1.888,-1.088 0,-0.704 -0.416,-1.12 -1.216,-1.12 -0.032,0 -0.096,0 -0.16,0 l -5.472,-5.344 4.48,-4.672 c 0.16,0 0.32,0.032 0.448,0.032 1.088,0 1.632,-0.352 1.632,-1.152 0,-0.672 -0.448,-1.088 -1.088,-1.088 l -4.064,0 c -1.088,0 -1.6,0.32 -1.6,1.12 0,0.736 0.576,1.088 1.728,1.088 0.128,0 0.224,0 0.32,0 l -3.2,3.296 -3.36,-3.296 c 1.184,0 1.792,-0.352 1.792,-1.088 0,-0.8 -0.512,-1.12 -1.6,-1.12 l -3.2,0 c -1.376,0 -1.92,0.192 -1.92,1.12 0,0.832 0.448,1.088 1.6,1.088 0.064,0 0.16,0 0.224,0 l 4.96,4.832 -5.056,5.184 c -0.128,0 -0.224,0 -0.32,0 -1.152,0 -1.76,0.32 -1.76,1.024 0,0.768 0.448,1.184 1.088,1.184 l 4.288,0 c 1.056,0 1.632,-0.32 1.632,-1.088 0,-0.704 -0.608,-1.152 -1.664,-1.152 -0.16,0 -0.288,0.032 -0.448,0.032"
           style=""
           id="path4467" />
        <path
           d="m 320.94081,656.6123 -6.144,0 0,-3.168 c 0,-1.536 -0.128,-2.176 -1.248,-2.176 -0.832,0 -1.216,0.448 -1.216,1.312 0,0.416 0,0.704 0,0.832 l 0,3.2 -1.728,0 c -1.504,0 -2.144,0.096 -2.144,1.12 0,0.768 0.384,1.088 1.248,1.088 l 2.624,0 0,5.216 c 0,0.16 0,0.32 0,0.48 0,1.44 0.032,2.688 0.576,3.616 0.896,1.568 2.56,2.336 4.96,2.336 1.472,0 3.104,-0.416 5.056,-1.184 1.152,-0.448 1.728,-0.896 1.728,-1.632 0,-0.576 -0.512,-1.12 -1.088,-1.12 -1.248,0 -3.328,1.664 -5.856,1.664 -2.752,0 -2.944,-1.664 -2.944,-4.16 l 0,-5.216 6.336,0 c 0.864,0 1.312,-0.352 1.312,-1.088 0,-0.8 -0.48,-1.12 -1.472,-1.12"
           style=""
           id="path4469" />
      </g>
    </g>
    <g
       id="g3823"
       transform="matrix(0.74624613,0,0,0.74624613,105.36816,450.64059)"
       style="stroke:#594949;stroke-opacity:1">
      <path
         style="fill:none;stroke:#594949;stroke-width:2.68683481;stroke-linecap:round;stroke-linejoin:round;stroke-miterlimit:4;stroke-dashoffset:0"
         d="m 450.07023,610.68146 178.7328,0 c 9.06545,0 16.36363,7.29817 16.36363,16.36362 l 0,71.00646 c 0,9.06544 -7.29818,16.36362 -16.36363,16.36362 l -178.7328,0 c -9.06545,0 -16.36363,-7.29818 -16.36363,-16.36362 l 0,-71.00646 c 0,-9.06545 7.29818,-16.36362 16.36363,-16.36362 z"
         id="rect2985-7" />
      <g
         style="font-size:32px;font-style:normal;font-variant:normal;font-weight:normal;font-stretch:normal;text-align:start;line-height:125%;letter-spacing:0px;word-spacing:0px;writing-mode:lr-tb;text-anchor:start;fill:#000000;fill-opacity:1;stroke:#594949;font-family:Courier 10 Pitch;-inkscape-font-specification:Courier 10 Pitch"
         id="text3755-2">
        <path
           d="m 499.29477,660.56431 2.08,7.104 c 0.288,0.95999 0.608,1.376 1.536,1.376 0.736,0 1.088,-0.28801 1.312,-1.056 l 3.52,-11.712 c 0.992,0 1.344,-0.28801 1.344,-1.12 0,-0.736 -0.352,-1.088 -0.96,-1.088 l -4.192,0 c -0.992,0 -1.376,0.192 -1.376,1.088 0,0.92799 0.512,1.152 1.824,1.152 0.32,0 0.672,0 1.088,-0.032 l -2.624,9.376 -1.952,-6.496 c -0.288,-0.96 -0.608,-1.376 -1.536,-1.376 -0.736,0 -1.088,0.32 -1.312,1.056 l -2.016,6.816 -2.688,-9.376 c 0.384,0.032 0.704,0.032 1.024,0.032 1.376,0 1.92,-0.22401 1.92,-1.152 0,-0.928 -0.416,-1.088 -1.408,-1.088 l -4.192,0 c -0.8,0 -1.184,0.384 -1.184,1.088 0,0.83199 0.384,1.12 1.376,1.12 l 3.584,11.392 c 0.288,0.95999 0.608,1.376 1.536,1.376 0.704,0 1.12,-0.32001 1.312,-1.056 l 1.984,-7.424"
           style=""
           id="path4439" />
        <path
           d="m 526.83277,661.30031 c 0,-4.32 -3.2,-7.584 -8.16,-7.584 -4.95999,0 -8.192,3.232 -8.192,7.584 0,4.35199 3.23201,7.584 8.192,7.584 4.96,0 8.16,-3.23201 8.16,-7.584 m -8.16,5.408 c -3.232,0 -5.472,-2.30401 -5.472,-5.408 0,-3.104 2.24,-5.44 5.472,-5.44 3.232,0 5.472,2.336 5.472,5.44 0,3.13599 -2.24,5.408 -5.472,5.408"
           style=""
           id="path4441" />
        <path
           d="m 536.38677,666.29231 0,-6.464 c 2.08,-2.368 3.84,-3.616 5.568,-3.616 1.216,0 1.888,0.96 2.72,0.96 0.672,0 1.376,-0.70401 1.376,-1.472 0,-1.152 -1.152,-2.016 -3.104,-2.016 -2.496,0 -4.608,1.216 -6.56,3.68 l 0,-2.656 c 0,-0.448 -0.288,-0.64 -0.864,-0.64 l -3.552,0 c -0.832,0 -1.248,0.352 -1.248,1.088 0,0.79999 0.448,1.12 1.472,1.12 0.16,0 0.448,0 0.8,0 l 1.056,0 0,10.016 -2.752,0 c -0.864,0 -1.312,0.352 -1.312,1.088 0,0.73599 0.448,1.12 1.28,1.12 l 10.208,0 c 0.928,0 1.28,-0.22401 1.28,-1.12 0,-0.768 -0.384,-1.088 -1.184,-1.088 l -5.184,0"
           style=""
           id="path4443" />
        <path
           d="m 551.63677,661.49231 c 0,-3.104 1.984,-5.152 4.928,-5.152 2.912,0 4.928,2.112 4.928,4.992 0,2.87999 -2.08,5.056 -4.96,5.056 -2.784,0 -4.896,-1.95201 -4.896,-4.896 m 10.24,7.008 2.976,0 c 0.672,0 1.12,-0.41601 1.12,-1.12 0,-0.8 -0.448,-1.088 -1.44,-1.088 -0.224,0 -0.48,0 -0.704,0 l 0,-17.6 c 0,-0.448 -0.288,-0.64 -0.896,-0.64 l -3.2,0 c -0.832,0 -1.248,0.384 -1.248,1.12 0,1.02399 0.672,1.12 2.144,1.12 l 0.832,0 0,5.984 c -1.216,-1.504 -2.944,-2.24 -5.088,-2.24 -4.22399,0 -7.424,3.264 -7.424,7.392 0,4.38399 3.00801,7.456 6.944,7.456 2.208,0 4.128,-0.89601 5.376,-2.464 l 0,1.28 c 0,0.54399 0.128,0.8 0.608,0.8"
           style=""
           id="path4445" />
        <path
           d="m 569.57477,667.38031 c 0,0.99199 0.416,1.504 1.152,1.504 0.352,0 0.864,-0.25601 1.6,-0.736 1.76,0.44799 3.328,0.704 4.736,0.704 3.904,0 6.112,-1.95201 6.112,-4.64 0,-3.072 -2.144,-4.288 -6.272,-4.384 -3.072,-0.064 -4.864,-0.22401 -4.864,-1.888 0,-1.248 1.184,-2.304 3.264,-2.304 1.632,0 2.784,0.384 3.968,1.44 0.928,0.83199 1.248,1.632 1.952,1.632 0.768,0 1.056,-0.54401 1.056,-1.568 l 0,-1.824 c 0,-1.056 -0.352,-1.568 -1.056,-1.568 -0.832,0 -1.152,0.608 -1.6,0.608 -0.448,0 -1.696,-0.704 -3.968,-0.704 -3.87199,0 -6.016,1.792 -6.016,4.384 0,2.78399 2.27201,4.32 6.528,4.32 0.448,0 0.736,0 0.896,0 2.368,0 3.52,0.448 3.52,2.048 0,1.40799 -1.408,2.432 -3.68,2.432 -2.112,0 -3.904,-0.76801 -4.736,-1.856 -0.608,-0.8 -0.512,-1.664 -1.472,-1.664 -0.832,0 -1.12,0.448 -1.12,1.28 l 0,2.784"
           style=""
           id="path4447" />
      </g>
    </g>
    <g
       id="g3828"
       transform="matrix(0.74624613,0,0,0.74624613,127.33534,449.23214)"
       style="stroke:#594949;stroke-opacity:1">
      <path
         style="fill:none;stroke:#594949;stroke-width:2.68683481;stroke-linecap:round;stroke-linejoin:round;stroke-miterlimit:4;stroke-dashoffset:0"
         d="m 704.99979,610.68146 178.73281,0 c 9.06545,0 16.36362,7.29817 16.36362,16.36362 l 0,71.00646 c 0,9.06544 -7.29817,16.36362 -16.36362,16.36362 l -178.73281,0 c -9.06544,0 -16.36362,-7.29818 -16.36362,-16.36362 l 0,-71.00646 c 0,-9.06545 7.29818,-16.36362 16.36362,-16.36362 z"
         id="rect2985-6" />
      <g
         style="font-size:32px;font-style:normal;font-variant:normal;font-weight:normal;font-stretch:normal;text-align:start;line-height:125%;letter-spacing:0px;word-spacing:0px;writing-mode:lr-tb;text-anchor:start;fill:#000000;fill-opacity:1;stroke:#594949;font-family:Courier 10 Pitch;-inkscape-font-specification:Courier 10 Pitch"
         id="text3755-4">
        <path
           d="m 745.11558,664.86829 0.16,0.96 c 0.128,0.672 0.512,1.024 1.088,1.024 l 2.464,0 c 0.832,0 1.248,-0.384 1.248,-1.12 0,-0.92799 -0.544,-1.088 -1.856,-1.088 l -0.8,0 0,-7.072 c 0,-3.77599 -1.856,-5.536 -5.856,-5.536 -3.52,0 -5.824,1.12001 -5.824,2.208 0,0.8 0.48,1.312 1.056,1.312 1.216,0 2.496,-1.312 4.704,-1.312 2.4,0 3.52,1.12001 3.52,3.52 0,0.032 0,0.064 0,0.096 -1.28,-0.31999 -2.496,-0.48 -3.712,-0.48 -4.64,0 -7.232,1.95201 -7.232,5.184 0,2.752 2.048,4.672 5.184,4.672 2.144,0 4.16,-0.832 5.856,-2.368 m -0.096,-4.928 0,1.696 c 0,1.408 -2.56,3.2 -5.376,3.2 -1.824,0 -3.072,-1.056 -3.072,-2.432 0,-1.75999 1.824,-3.008 5.152,-3.008 1.152,0 2.24,0.19201 3.296,0.544"
           style=""
           id="path4423" />
        <path
           d="m 753.64558,654.62829 5.12,11.392 c 0.416,0.96 0.768,1.376 1.824,1.376 1.12,0 1.44,-0.384 1.888,-1.376 l 5.152,-11.392 c 0.096,0 0.192,0 0.288,0 1.248,0 1.792,-0.224 1.792,-1.12 0,-0.73599 -0.416,-1.088 -1.248,-1.088 l -4.832,0 c -1.024,0 -1.472,0.16001 -1.472,1.088 0,0.928 0.576,1.152 2.048,1.152 0.288,0 0.576,-0.032 0.928,-0.032 l -4.512,10.112 -4.064,-10.112 c 0.192,0 0.384,0 0.576,0 1.28,0 1.824,-0.224 1.824,-1.12 0,-0.92799 -0.448,-1.088 -1.472,-1.088 l -4.384,0 c -0.832,0 -1.248,0.35201 -1.248,1.088 0,0.896 0.512,1.12 1.792,1.12"
           style=""
           id="path4425" />
        <path
           d="m 774.84758,658.27629 c 0.608,-2.59199 2.624,-4.128 5.376,-4.128 2.528,0 4.512,1.63201 4.8,4.128 l -10.176,0 m -0.064,2.048 10.496,0 c 1.92,0 2.592,0 2.592,-1.472 0,-3.48799 -2.91201,-6.848 -7.648,-6.848 -4.832,0 -8.16,3.10401 -8.16,7.584 0,4.672 3.008,7.648 7.84,7.648 2.112,0 4.384,-0.512 6.528,-1.568 0.928,-0.44799 1.376,-0.928 1.376,-1.568 0,-0.57599 -0.48,-1.024 -1.088,-1.024 -1.408,0 -3.424,1.952 -6.592,1.952 -3.232,0 -5.184,-1.696 -5.344,-4.704"
           style=""
           id="path4427" />
        <path
           d="m 797.77758,664.64429 0,-6.464 c 2.08,-2.36799 3.84,-3.616 5.568,-3.616 1.216,0 1.888,0.96 2.72,0.96 0.672,0 1.376,-0.704 1.376,-1.472 0,-1.15199 -1.152,-2.016 -3.104,-2.016 -2.496,0 -4.608,1.21601 -6.56,3.68 l 0,-2.656 c 0,-0.44799 -0.288,-0.64 -0.864,-0.64 l -3.552,0 c -0.832,0 -1.248,0.35201 -1.248,1.088 0,0.8 0.448,1.12 1.472,1.12 0.16,0 0.448,0 0.8,0 l 1.056,0 0,10.016 -2.752,0 c -0.864,0 -1.312,0.35201 -1.312,1.088 0,0.736 0.448,1.12 1.28,1.12 l 10.208,0 c 0.928,0 1.28,-0.224 1.28,-1.12 0,-0.76799 -0.384,-1.088 -1.184,-1.088 l -5.184,0"
           style=""
           id="path4429" />
        <path
           d="m 822.11558,664.86829 0.16,0.96 c 0.128,0.672 0.512,1.024 1.088,1.024 l 2.464,0 c 0.832,0 1.248,-0.384 1.248,-1.12 0,-0.92799 -0.544,-1.088 -1.856,-1.088 l -0.8,0 0,-7.072 c 0,-3.77599 -1.856,-5.536 -5.856,-5.536 -3.52,0 -5.824,1.12001 -5.824,2.208 0,0.8 0.48,1.312 1.056,1.312 1.216,0 2.496,-1.312 4.704,-1.312 2.4,0 3.52,1.12001 3.52,3.52 0,0.032 0,0.064 0,0.096 -1.28,-0.31999 -2.496,-0.48 -3.712,-0.48 -4.64,0 -7.232,1.95201 -7.232,5.184 0,2.752 2.048,4.672 5.184,4.672 2.144,0 4.16,-0.832 5.856,-2.368 m -0.096,-4.928 0,1.696 c 0,1.408 -2.56,3.2 -5.376,3.2 -1.824,0 -3.072,-1.056 -3.072,-2.432 0,-1.75999 1.824,-3.008 5.152,-3.008 1.152,0 2.24,0.19201 3.296,0.544"
           style=""
           id="path4431" />
        <path
           d="m 844.14958,666.02029 0,-11.392 c 0.096,0 0.192,0 0.288,0 1.312,0 1.856,-0.224 1.856,-1.12 0,-0.73599 -0.416,-1.088 -1.248,-1.088 l -2.368,0 c -0.608,0 -0.896,0.19201 -0.896,0.64 l 0,1.12 c -1.504,-1.18399 -3.008,-1.792 -4.608,-1.792 -3.776,0 -6.88,2.84801 -6.88,6.88 0,4.096 2.88,6.944 6.752,6.944 2.016,0 3.488,-0.672 4.768,-2.144 l 0,1.888 c 0,3.232 -0.992,4.704 -4.256,4.704 -0.832,0 -1.696,-0.224 -2.624,-0.224 -0.736,0 -1.344,0.57601 -1.344,1.216 0,1.024 1.12,1.44 3.424,1.44 2.912,0 5.024,-0.864 6.176,-2.368 0.928,-1.21599 0.96,-2.592 0.96,-4.352 0,-0.12799 0,-0.224 0,-0.352 m -6.784,-11.296 c 2.752,0 4.64,1.92001 4.64,4.544 0,2.656 -1.92,4.544 -4.64,4.544 -2.752,0 -4.64,-1.92 -4.64,-4.544 0,-2.68799 1.92,-4.544 4.64,-4.544"
           style=""
           id="path4433" />
        <path
           d="m 851.84758,658.27629 c 0.608,-2.59199 2.624,-4.128 5.376,-4.128 2.528,0 4.512,1.63201 4.8,4.128 l -10.176,0 m -0.064,2.048 10.496,0 c 1.92,0 2.592,0 2.592,-1.472 0,-3.48799 -2.91201,-6.848 -7.648,-6.848 -4.832,0 -8.16,3.10401 -8.16,7.584 0,4.672 3.008,7.648 7.84,7.648 2.112,0 4.384,-0.512 6.528,-1.568 0.928,-0.44799 1.376,-0.928 1.376,-1.568 0,-0.57599 -0.48,-1.024 -1.088,-1.024 -1.408,0 -3.424,1.952 -6.592,1.952 -3.232,0 -5.184,-1.696 -5.344,-4.704"
           style=""
           id="path4435" />
      </g>
    </g>
    <g
       style="font-size:28px;font-style:normal;font-variant:normal;font-weight:normal;font-stretch:normal;text-align:start;line-height:125%;letter-spacing:0px;word-spacing:0px;writing-mode:lr-tb;text-anchor:start;fill:#000000;fill-opacity:1;stroke:#594949;stroke-opacity:1;font-family:Courier 10 Pitch;-inkscape-font-specification:Courier 10 Pitch"
       id="text3833"
       transform="matrix(0.84020301,0,0,0.84020301,8.894554,148.39312)">
      <path
         d="m 67.081585,924.99726 -5.376,0 0,-2.772 c 0,-1.344 -0.112001,-1.904 -1.092,-1.904 -0.728,0 -1.064,0.392 -1.064,1.148 0,0.364 0,0.616 0,0.728 l 0,2.8 -1.512,0 c -1.315999,0 -1.876,0.084 -1.876,0.98 0,0.672 0.336,0.952 1.092,0.952 l 2.296,0 0,4.564 c 0,0.14 0,0.28 0,0.42 0,1.26 0.028,2.352 0.504,3.164 0.783999,1.372 2.240002,2.044 4.34,2.044 1.287998,0 2.716001,-0.364 4.424,-1.036 1.007998,-0.392 1.512,-0.784 1.512,-1.428 0,-0.504 -0.448001,-0.98 -0.952,-0.98 -1.091999,0 -2.912003,1.456 -5.124,1.456 -2.407998,0 -2.576,-1.456 -2.576,-3.64 l 0,-4.564 5.544,0 c 0.755999,0 1.148,-0.308 1.148,-0.952 0,-0.7 -0.420001,-0.98 -1.288,-0.98"
         id="path4405"
         inkscape:connector-curvature="0" />
      <path
         d="m 75.637335,929.36526 c 0.531999,-2.268 2.296002,-3.612 4.704,-3.612 2.211997,0 3.948,1.428 4.2,3.612 l -8.904,0 m -0.056,1.792 9.184,0 c 1.679998,0 2.268,0 2.268,-1.288 0,-3.05199 -2.548005,-5.992 -6.692,-5.992 -4.227996,0 -7.14,2.71601 -7.14,6.636 0,4.088 2.632004,6.692 6.86,6.692 1.847998,0 3.836001,-0.448 5.712,-1.372 0.811999,-0.392 1.204,-0.812 1.204,-1.372 0,-0.504 -0.420001,-0.896 -0.952,-0.896 -1.231999,0 -2.996003,1.708 -5.768,1.708 -2.827998,0 -4.536001,-1.484 -4.676,-4.116"
         id="path4407"
         inkscape:connector-curvature="0" />
      <path
         d="m 94.049085,934.93726 3.136,-3.36 3.443995,3.36 -0.755995,0 c -0.812,0 -1.232,0.392 -1.232,0.98 0,0.672 0.476,0.952 1.399995,0.952 l 2.8,0 c 1.204,0 1.652,-0.14 1.652,-0.952 0,-0.616 -0.364,-0.98 -1.064,-0.98 -0.028,0 -0.084,0 -0.14,0 l -4.787995,-4.676 3.919995,-4.088 c 0.14,0 0.28,0.028 0.392,0.028 0.952,0 1.428,-0.308 1.428,-1.008 0,-0.588 -0.392,-0.952 -0.952,-0.952 l -3.555995,0 c -0.952,0 -1.4,0.28 -1.4,0.98 0,0.644 0.504001,0.952 1.512,0.952 0.111999,0 0.195995,0 0.279995,0 l -2.799995,2.884 -2.94,-2.884 c 1.035998,0 1.568,-0.308 1.568,-0.952 0,-0.7 -0.448001,-0.98 -1.4,-0.98 l -2.8,0 c -1.203999,0 -1.68,0.168 -1.68,0.98 0,0.728 0.392001,0.952 1.4,0.952 0.056,0 0.14,0 0.196,0 l 4.34,4.228 -4.424,4.536 c -0.112,0 -0.196001,0 -0.28,0 -1.007999,0 -1.54,0.28 -1.54,0.896 0,0.672 0.392,1.036 0.952,1.036 l 3.752,0 c 0.923999,0 1.428,-0.28 1.428,-0.952 0,-0.616 -0.532001,-1.008 -1.456,-1.008 -0.14,0 -0.252001,0.028 -0.392,0.028"
         id="path4409"
         inkscape:connector-curvature="0" />
      <path
         d="m 117.61283,924.99726 -5.376,0 0,-2.772 c 0,-1.344 -0.112,-1.904 -1.092,-1.904 -0.72799,0 -1.064,0.392 -1.064,1.148 0,0.364 0,0.616 0,0.728 l 0,2.8 -1.512,0 c -1.31599,0 -1.876,0.084 -1.876,0.98 0,0.672 0.33601,0.952 1.092,0.952 l 2.296,0 0,4.564 c 0,0.14 0,0.28 0,0.42 0,1.26 0.028,2.352 0.504,3.164 0.784,1.372 2.24001,2.044 4.34,2.044 1.288,0 2.71601,-0.364 4.424,-1.036 1.008,-0.392 1.512,-0.784 1.512,-1.428 0,-0.504 -0.448,-0.98 -0.952,-0.98 -1.09199,0 -2.912,1.456 -5.124,1.456 -2.40799,0 -2.576,-1.456 -2.576,-3.64 l 0,-4.564 5.544,0 c 0.756,0 1.148,-0.308 1.148,-0.952 0,-0.7 -0.42,-0.98 -1.288,-0.98"
         id="path4411"
         inkscape:connector-curvature="0" />
      <path
         d="m 67.557585,969.90926 -4.48,0 0,-8.344 4.76,0 c 0.699999,0 1.092,-0.364 1.092,-1.008 0,-0.644 -0.392001,-0.98 -1.148,-0.98 l -4.788,0 c -0.028,-0.28 -0.028,-0.532 -0.028,-0.784 0,-1.96 0.812002,-2.8 2.884,-2.8 1.203998,0 2.128,0.336 2.8,0.336 0.643999,0 1.12,-0.392 1.12,-0.98 0,-0.98 -1.008002,-1.4 -2.996,-1.4 -4.171996,0 -5.992,1.37201 -5.992,4.648 0,0.308 0.028,0.644 0.056,0.98 l -2.184,0 c -0.728,0 -1.092,0.336 -1.092,0.98 0,0.644 0.364,1.008 1.12,1.008 l 2.268,0 0,8.344 -2.324,0 c -0.7,0 -1.092,0.336 -1.092,0.98 0,0.644 0.392,0.98 1.148,0.98 l 8.932,0 c 0.727999,0 1.092,-0.336 1.092,-0.98 0,-0.644 -0.392001,-0.98 -1.148,-0.98"
         id="path4413"
         inkscape:connector-curvature="0" />
      <path
         d="m 81.461335,969.93726 0,-10.136 c 0,-0.336 -0.252001,-0.56 -0.784,-0.56 l -4.004,0 c -0.728,0 -1.092,0.308 -1.092,0.952 0,0.644 0.392,0.98 1.148,0.98 l 2.66,0 0,8.764 -4.172,0 c -0.756,0 -1.148,0.308 -1.148,0.952 0,0.644 0.364,0.98 1.092,0.98 l 10.612,0 c 0.811999,0 1.12,-0.196 1.12,-0.98 0,-0.672 -0.336001,-0.952 -1.036,-0.952 l -4.396,0 m -2.548,-14.644 c 0,1.12 0.280001,1.344 1.428,1.344 1.315998,0 1.4,-0.308 1.4,-1.736 0,-1.428 -0.140002,-1.848 -1.4,-1.848 -1.259999,0 -1.428,0.42 -1.428,2.24"
         id="path4415"
         inkscape:connector-curvature="0" />
      <path
         d="m 96.121085,955.93726 0,14 -3.78,0 c -0.756,0 -1.148,0.308 -1.148,0.952 0,0.644 0.364,0.98 1.092,0.98 l 10.079995,0 c 0.812,0 1.12,-0.196 1.12,-0.98 0,-0.672 -0.336,-0.952 -1.036,-0.952 l -4.255995,0 0,-15.4 c 0,-0.336 -0.252001,-0.56 -0.784,-0.56 l -4.508,0 c -0.728,0 -1.092,0.336 -1.092,0.98 0,0.7 0.392,0.952 1.288,0.952 0.139999,0 0.392,0.028 0.7,0.028 l 2.324,0"
         id="path4417"
         inkscape:connector-curvature="0" />
      <path
         d="m 109.32483,964.36526 c 0.532,-2.268 2.29601,-3.612 4.704,-3.612 2.212,0 3.948,1.428 4.2,3.612 l -8.904,0 m -0.056,1.792 9.184,0 c 1.68,0 2.268,0 2.268,-1.288 0,-3.05199 -2.548,-5.992 -6.692,-5.992 -4.22799,0 -7.14,2.71601 -7.14,6.636 0,4.088 2.63201,6.692 6.86,6.692 1.848,0 3.83601,-0.448 5.712,-1.372 0.812,-0.392 1.204,-0.812 1.204,-1.372 0,-0.504 -0.42,-0.896 -0.952,-0.896 -1.23199,0 -2.996,1.708 -5.768,1.708 -2.82799,0 -4.536,-1.484 -4.676,-4.116"
         id="path4419"
         inkscape:connector-curvature="0" />
    </g>
    <path
       style="fill:none;stroke:#594949;stroke-width:2.448;stroke-linecap:round;stroke-linejoin:round;stroke-miterlimit:4;stroke-dashoffset:0;stroke-opacity:1;stroke-dasharray:none"
       d="m 29.40159,887.39752 115.8447,0 0,117.25318 -115.8447,0 z"
       id="rect3839" />
    <path
       style="fill:none;stroke:#594949;stroke-width:2.5;stroke-linecap:round;stroke-linejoin:round;stroke-miterlimit:4;stroke-dashoffset:0;stroke-opacity:1;stroke-dasharray:none"
       d="m 857.74646,890.39038 104.22535,0 0,112.67602 -104.22535,0 z"
       id="rect3841" />
    <g
       style="font-size:28px;font-style:normal;font-variant:normal;font-weight:normal;font-stretch:normal;text-align:start;line-height:125%;letter-spacing:0px;word-spacing:0px;writing-mode:lr-tb;text-anchor:start;fill:#000000;fill-opacity:1;stroke:#594949;stroke-opacity:1;font-family:Courier 10 Pitch;-inkscape-font-specification:Courier 10 Pitch"
       id="text3833-4"
       transform="matrix(0.92642861,0,0,0.92642861,63.707633,67.683664)">
      <path
         d="m 868.78144,910.0646 c 0.476,-3.864 2.38,-6.244 5.208,-6.776 1.932,-0.364 3.332,0.252 3.332,-1.036 0,-0.784 -0.588,-0.924 -2.184,-0.924 -5.20799,0 -8.708,4.06 -8.708,10.304 0,4.81599 2.38,7.84 5.936,7.84 3.052,0 5.208,-2.38001 5.208,-5.684 0,-3.248 -2.38,-5.628 -5.18,-5.628 -1.428,0 -2.632,0.644 -3.612,1.904 m 0.308,3.64 c 0,-2.1 1.316,-3.556 3.052,-3.556 1.792,0 3.108,1.512 3.108,3.752 0,2.21199 -1.288,3.612 -2.996,3.612 -1.792,0 -3.164,-1.48401 -3.164,-3.808"
         id="path4394"
         inkscape:connector-curvature="0" />
      <path
         d="m 886.18519,916.7846 c 0,1.4 1.064,2.436 2.688,2.436 1.624,0 2.688,-1.008 2.688,-2.436 0,-1.428 -1.064,-2.436 -2.688,-2.436 -1.624,0 -2.688,1.036 -2.688,2.436"
         id="path4396"
         inkscape:connector-curvature="0" />
      <path
         d="m 907.84494,909.6166 c 1.904,-0.672 2.772,-1.904 2.772,-3.808 0,-2.436 -2.016,-4.48 -4.956,-4.48 -2.772,0 -4.928,1.568 -4.928,2.492 0,0.504 0.392,0.868 0.896,0.868 0.84,0 1.876,-1.456 3.892,-1.456 1.624,0 2.828,1.204 2.828,2.968 0,1.344 -0.952,2.38 -2.38,2.604 -1.428,0.224 -1.848,0.028 -1.848,1.036 0,1.204 0.728,0.812 2.128,1.064 1.652,0.308 2.632,1.512 2.632,3.136 0,1.932 -1.456,3.332 -3.668,3.332 -2.184,0 -3.584,-1.4 -4.396,-1.4 -0.56,0 -1.008,0.392 -1.008,0.952 0,1.232 2.408,2.548 5.32,2.548 3.668,0 6.076,-2.32401 6.076,-5.432 0,-2.212 -1.204,-3.836 -3.36,-4.424"
         id="path4398"
         inkscape:connector-curvature="0" />
      <path
         d="m 922.22469,919.0246 4.424,0 c 0.728,0 1.092,-0.336 1.092,-0.98 0,-0.756 -0.448,-0.952 -1.54,-0.952 -0.14,0 -0.308,0 -0.476,0 l 0,-2.296 1.148,0 c 0.588,0 0.756,-0.252 0.868,-0.84 l 0.112,-0.56 c 0.056,-0.224 0.056,-0.392 0.056,-0.476 0,-0.392 -0.28,-0.672 -0.644,-0.672 -0.448,0 -0.28,0.476 -0.84,0.476 l -0.7,0 0,-10.388 c 0,-0.42 -0.14,-0.644 -0.42,-0.7 l -1.4,-0.224 c -0.14,-0.028 -0.252,-0.028 -0.364,-0.028 -0.308,0 -0.448,0.112 -0.672,0.504 l -5.768,9.8 c -0.224,0.364 -0.504,0.672 -0.504,1.316 l 0,0.952 c 0,0.56 0.28,0.84 0.728,0.84 l 6.384,0 0,2.296 -1.596,0 c -0.7,0 -1.008,0.28 -1.008,0.952 0,0.784 0.308,0.98 1.12,0.98 m 1.484,-6.3 -5.18,0 5.18,-9.268 0,9.268"
         id="path4400"
         inkscape:connector-curvature="0" />
    </g>
    <path
       style="fill:none;stroke:#594949;stroke-width:2;stroke-linecap:butt;stroke-linejoin:miter;stroke-miterlimit:4;stroke-opacity:1;stroke-dasharray:none;marker-end:url(#Arrow2Lend)"
       d="m 143.66196,941.09458 66.19719,0"
       id="path3869"
       inkscape:connector-type="polyline"
       inkscape:connector-curvature="0" />
    <path
       style="fill:none;stroke:#594949;stroke-width:2;stroke-linecap:butt;stroke-linejoin:miter;stroke-miterlimit:4;stroke-opacity:1;stroke-dasharray:none;marker-end:url(#Arrow2Lend)"
       d="m 371.70719,943.94671 54.7817,0"
       id="path3869-8"
       inkscape:connector-type="polyline"
       inkscape:connector-curvature="0"
       sodipodi:nodetypes="cc" />
    <path
       style="fill:none;stroke:#594949;stroke-width:2;stroke-linecap:butt;stroke-linejoin:miter;stroke-miterlimit:4;stroke-opacity:1;stroke-dasharray:none;marker-end:url(#Arrow2Lend)"
       d="m 586.49592,943.94671 53.52113,0"
       id="path3869-8-9"
       inkscape:connector-type="polyline"
       inkscape:connector-curvature="0"
       sodipodi:nodetypes="cc" />
    <path
       style="fill:none;stroke:#594949;stroke-width:2;stroke-linecap:butt;stroke-linejoin:miter;stroke-miterlimit:4;stroke-opacity:1;stroke-dasharray:none;marker-end:url(#Arrow2Lend)"
       d="m 799.17198,943.9467 53.52113,0"
       id="path3869-8-4"
       inkscape:connector-type="polyline"
       inkscape:connector-curvature="0"
       sodipodi:nodetypes="cc" />
  </g>
</svg>
